G04 #@! TF.GenerationSoftware,KiCad,Pcbnew,(5.0.0)*
G04 #@! TF.CreationDate,2020-03-31T10:14:19-04:00*
G04 #@! TF.ProjectId,WS2812 STRIP 10CM,57533238313220535452495020313043,rev?*
G04 #@! TF.SameCoordinates,Original*
G04 #@! TF.FileFunction,Copper,L2,Bot,Signal*
G04 #@! TF.FilePolarity,Positive*
%FSLAX46Y46*%
G04 Gerber Fmt 4.6, Leading zero omitted, Abs format (unit mm)*
G04 Created by KiCad (PCBNEW (5.0.0)) date 03/31/20 10:14:19*
%MOMM*%
%LPD*%
G01*
G04 APERTURE LIST*
G04 #@! TA.AperFunction,ComponentPad*
%ADD10R,1.700000X1.700000*%
G04 #@! TD*
G04 #@! TA.AperFunction,ComponentPad*
%ADD11O,1.700000X1.700000*%
G04 #@! TD*
G04 #@! TA.AperFunction,ViaPad*
%ADD12C,0.800000*%
G04 #@! TD*
G04 #@! TA.AperFunction,Conductor*
%ADD13C,0.400000*%
G04 #@! TD*
G04 #@! TA.AperFunction,Conductor*
%ADD14C,0.200000*%
G04 #@! TD*
G04 APERTURE END LIST*
D10*
G04 #@! TO.P,J1,1*
G04 #@! TO.N,VCC*
X87000000Y-52460000D03*
D11*
G04 #@! TO.P,J1,2*
G04 #@! TO.N,SIG_IN*
X87000000Y-55000000D03*
G04 #@! TO.P,J1,3*
G04 #@! TO.N,GND*
X87000000Y-57540000D03*
G04 #@! TD*
G04 #@! TO.P,J2,3*
G04 #@! TO.N,GND*
X183000000Y-57080000D03*
G04 #@! TO.P,J2,2*
G04 #@! TO.N,SIG_OUT*
X183000000Y-54540000D03*
D10*
G04 #@! TO.P,J2,1*
G04 #@! TO.N,VCC*
X183000000Y-52000000D03*
G04 #@! TD*
D11*
G04 #@! TO.P,J3,3*
G04 #@! TO.N,GND*
X183000000Y-68080000D03*
G04 #@! TO.P,J3,2*
G04 #@! TO.N,SIG_IN*
X183000000Y-65540000D03*
D10*
G04 #@! TO.P,J3,1*
G04 #@! TO.N,VCC*
X183000000Y-63000000D03*
G04 #@! TD*
G04 #@! TO.P,J4,1*
G04 #@! TO.N,VCC*
X87000000Y-62960000D03*
D11*
G04 #@! TO.P,J4,2*
G04 #@! TO.N,SIG_OUT*
X87000000Y-65500000D03*
G04 #@! TO.P,J4,3*
G04 #@! TO.N,GND*
X87000000Y-68040000D03*
G04 #@! TD*
D12*
G04 #@! TO.N,GND*
X170500000Y-58000000D03*
X161500000Y-58000000D03*
X152500000Y-58000000D03*
X143500000Y-58000000D03*
X134500000Y-58000000D03*
X125500000Y-58000000D03*
X116500000Y-58000000D03*
X115000000Y-62500000D03*
X124000000Y-62500000D03*
X133000000Y-62500000D03*
X142000000Y-62500000D03*
X151000000Y-62500000D03*
X160000000Y-62500000D03*
X169000000Y-62500000D03*
X178000000Y-62500000D03*
X178000000Y-52500000D03*
X169000000Y-52500000D03*
X160500000Y-52500000D03*
X151000000Y-52500000D03*
X142000000Y-52500000D03*
X133000000Y-52500000D03*
X124000000Y-52500000D03*
X115000000Y-52500000D03*
X97000000Y-52500000D03*
X105500000Y-52500000D03*
X107500000Y-58000000D03*
X98500000Y-58000000D03*
X97000000Y-62500000D03*
X106000000Y-62500000D03*
G04 #@! TD*
D13*
G04 #@! TO.N,SIG_IN*
X183000000Y-65540000D02*
X181749700Y-65540000D01*
X181749700Y-65540000D02*
X181749700Y-65071100D01*
X181749700Y-65071100D02*
X171678600Y-55000000D01*
X171678600Y-55000000D02*
X87000000Y-55000000D01*
G04 #@! TD*
D14*
G04 #@! TO.N,GND*
G36*
X184525001Y-59953217D02*
X184525000Y-59953222D01*
X184525001Y-69525000D01*
X183154002Y-69525000D01*
X183154002Y-69377857D01*
X183378911Y-69487915D01*
X183888854Y-69235741D01*
X184263477Y-68807616D01*
X184407903Y-68458910D01*
X184296889Y-68234000D01*
X183154000Y-68234000D01*
X183154000Y-68254000D01*
X182846000Y-68254000D01*
X182846000Y-68234000D01*
X181703111Y-68234000D01*
X181592097Y-68458910D01*
X181736523Y-68807616D01*
X182111146Y-69235741D01*
X182621089Y-69487915D01*
X182845998Y-69377857D01*
X182845998Y-69525000D01*
X85475000Y-69525000D01*
X85475000Y-68418910D01*
X85592097Y-68418910D01*
X85736523Y-68767616D01*
X86111146Y-69195741D01*
X86621089Y-69447915D01*
X86846000Y-69337856D01*
X86846000Y-68194000D01*
X87154000Y-68194000D01*
X87154000Y-69337856D01*
X87378911Y-69447915D01*
X87888854Y-69195741D01*
X88263477Y-68767616D01*
X88407903Y-68418910D01*
X88296889Y-68194000D01*
X87154000Y-68194000D01*
X86846000Y-68194000D01*
X85703111Y-68194000D01*
X85592097Y-68418910D01*
X85475000Y-68418910D01*
X85475000Y-67661090D01*
X85592097Y-67661090D01*
X85703111Y-67886000D01*
X86846000Y-67886000D01*
X86846000Y-67866000D01*
X87154000Y-67866000D01*
X87154000Y-67886000D01*
X88296889Y-67886000D01*
X88407903Y-67661090D01*
X88263477Y-67312384D01*
X87888854Y-66884259D01*
X87475579Y-66679889D01*
X87487725Y-66677473D01*
X87901199Y-66401199D01*
X88177473Y-65987725D01*
X88274488Y-65500000D01*
X88177473Y-65012275D01*
X87901199Y-64598801D01*
X87487725Y-64322527D01*
X87123109Y-64250000D01*
X86876891Y-64250000D01*
X86512275Y-64322527D01*
X86098801Y-64598801D01*
X85822527Y-65012275D01*
X85725512Y-65500000D01*
X85822527Y-65987725D01*
X86098801Y-66401199D01*
X86512275Y-66677473D01*
X86524421Y-66679889D01*
X86111146Y-66884259D01*
X85736523Y-67312384D01*
X85592097Y-67661090D01*
X85475000Y-67661090D01*
X85475000Y-62110000D01*
X85742164Y-62110000D01*
X85742164Y-63810000D01*
X85773209Y-63966072D01*
X85861616Y-64098384D01*
X85993928Y-64186791D01*
X86150000Y-64217836D01*
X87850000Y-64217836D01*
X88006072Y-64186791D01*
X88138384Y-64098384D01*
X88226791Y-63966072D01*
X88257836Y-63810000D01*
X88257836Y-62110000D01*
X88226791Y-61953928D01*
X88138384Y-61821616D01*
X88006072Y-61733209D01*
X87850000Y-61702164D01*
X86150000Y-61702164D01*
X85993928Y-61733209D01*
X85861616Y-61821616D01*
X85773209Y-61953928D01*
X85742164Y-62110000D01*
X85475000Y-62110000D01*
X85475000Y-57918910D01*
X85592097Y-57918910D01*
X85736523Y-58267616D01*
X86111146Y-58695741D01*
X86621089Y-58947915D01*
X86846000Y-58837856D01*
X86846000Y-57694000D01*
X87154000Y-57694000D01*
X87154000Y-58837856D01*
X87378911Y-58947915D01*
X87888854Y-58695741D01*
X88263477Y-58267616D01*
X88407903Y-57918910D01*
X88296889Y-57694000D01*
X87154000Y-57694000D01*
X86846000Y-57694000D01*
X85703111Y-57694000D01*
X85592097Y-57918910D01*
X85475000Y-57918910D01*
X85475000Y-57161090D01*
X85592097Y-57161090D01*
X85703111Y-57386000D01*
X86846000Y-57386000D01*
X86846000Y-57366000D01*
X87154000Y-57366000D01*
X87154000Y-57386000D01*
X88296889Y-57386000D01*
X88407903Y-57161090D01*
X88263477Y-56812384D01*
X87888854Y-56384259D01*
X87475579Y-56179889D01*
X87487725Y-56177473D01*
X87901199Y-55901199D01*
X88102453Y-55600000D01*
X171430073Y-55600000D01*
X181149700Y-65319628D01*
X181149700Y-65480909D01*
X181137946Y-65540000D01*
X181184513Y-65774108D01*
X181317125Y-65972575D01*
X181515592Y-66105187D01*
X181749700Y-66151754D01*
X181808791Y-66140000D01*
X181897547Y-66140000D01*
X182098801Y-66441199D01*
X182512275Y-66717473D01*
X182524421Y-66719889D01*
X182111146Y-66924259D01*
X181736523Y-67352384D01*
X181592097Y-67701090D01*
X181703111Y-67926000D01*
X182846000Y-67926000D01*
X182846000Y-67906000D01*
X183154000Y-67906000D01*
X183154000Y-67926000D01*
X184296889Y-67926000D01*
X184407903Y-67701090D01*
X184263477Y-67352384D01*
X183888854Y-66924259D01*
X183475579Y-66719889D01*
X183487725Y-66717473D01*
X183901199Y-66441199D01*
X184177473Y-66027725D01*
X184274488Y-65540000D01*
X184177473Y-65052275D01*
X183901199Y-64638801D01*
X183487725Y-64362527D01*
X183123109Y-64290000D01*
X182876891Y-64290000D01*
X182512275Y-64362527D01*
X182140745Y-64610775D01*
X182132181Y-64605053D01*
X179677128Y-62150000D01*
X181742164Y-62150000D01*
X181742164Y-63850000D01*
X181773209Y-64006072D01*
X181861616Y-64138384D01*
X181993928Y-64226791D01*
X182150000Y-64257836D01*
X183850000Y-64257836D01*
X184006072Y-64226791D01*
X184138384Y-64138384D01*
X184226791Y-64006072D01*
X184257836Y-63850000D01*
X184257836Y-62150000D01*
X184226791Y-61993928D01*
X184138384Y-61861616D01*
X184006072Y-61773209D01*
X183850000Y-61742164D01*
X182150000Y-61742164D01*
X181993928Y-61773209D01*
X181861616Y-61861616D01*
X181773209Y-61993928D01*
X181742164Y-62150000D01*
X179677128Y-62150000D01*
X174986038Y-57458910D01*
X181592097Y-57458910D01*
X181736523Y-57807616D01*
X182111146Y-58235741D01*
X182621089Y-58487915D01*
X182846000Y-58377856D01*
X182846000Y-57234000D01*
X183154000Y-57234000D01*
X183154000Y-58377856D01*
X183378911Y-58487915D01*
X183888854Y-58235741D01*
X184263477Y-57807616D01*
X184407903Y-57458910D01*
X184296889Y-57234000D01*
X183154000Y-57234000D01*
X182846000Y-57234000D01*
X181703111Y-57234000D01*
X181592097Y-57458910D01*
X174986038Y-57458910D01*
X174228218Y-56701090D01*
X181592097Y-56701090D01*
X181703111Y-56926000D01*
X182846000Y-56926000D01*
X182846000Y-56906000D01*
X183154000Y-56906000D01*
X183154000Y-56926000D01*
X184296889Y-56926000D01*
X184407903Y-56701090D01*
X184263477Y-56352384D01*
X183888854Y-55924259D01*
X183475579Y-55719889D01*
X183487725Y-55717473D01*
X183901199Y-55441199D01*
X184177473Y-55027725D01*
X184274488Y-54540000D01*
X184177473Y-54052275D01*
X183901199Y-53638801D01*
X183487725Y-53362527D01*
X183123109Y-53290000D01*
X182876891Y-53290000D01*
X182512275Y-53362527D01*
X182098801Y-53638801D01*
X181822527Y-54052275D01*
X181725512Y-54540000D01*
X181822527Y-55027725D01*
X182098801Y-55441199D01*
X182512275Y-55717473D01*
X182524421Y-55719889D01*
X182111146Y-55924259D01*
X181736523Y-56352384D01*
X181592097Y-56701090D01*
X174228218Y-56701090D01*
X172144649Y-54617522D01*
X172111175Y-54567425D01*
X171912708Y-54434813D01*
X171737691Y-54400000D01*
X171737686Y-54400000D01*
X171678600Y-54388247D01*
X171619514Y-54400000D01*
X88102453Y-54400000D01*
X87901199Y-54098801D01*
X87487725Y-53822527D01*
X87123109Y-53750000D01*
X86876891Y-53750000D01*
X86512275Y-53822527D01*
X86098801Y-54098801D01*
X85822527Y-54512275D01*
X85725512Y-55000000D01*
X85822527Y-55487725D01*
X86098801Y-55901199D01*
X86512275Y-56177473D01*
X86524421Y-56179889D01*
X86111146Y-56384259D01*
X85736523Y-56812384D01*
X85592097Y-57161090D01*
X85475000Y-57161090D01*
X85475000Y-51610000D01*
X85742164Y-51610000D01*
X85742164Y-53310000D01*
X85773209Y-53466072D01*
X85861616Y-53598384D01*
X85993928Y-53686791D01*
X86150000Y-53717836D01*
X87850000Y-53717836D01*
X88006072Y-53686791D01*
X88138384Y-53598384D01*
X88226791Y-53466072D01*
X88257836Y-53310000D01*
X88257836Y-51610000D01*
X88226791Y-51453928D01*
X88138384Y-51321616D01*
X88006072Y-51233209D01*
X87850000Y-51202164D01*
X86150000Y-51202164D01*
X85993928Y-51233209D01*
X85861616Y-51321616D01*
X85773209Y-51453928D01*
X85742164Y-51610000D01*
X85475000Y-51610000D01*
X85475000Y-51150000D01*
X181742164Y-51150000D01*
X181742164Y-52850000D01*
X181773209Y-53006072D01*
X181861616Y-53138384D01*
X181993928Y-53226791D01*
X182150000Y-53257836D01*
X183850000Y-53257836D01*
X184006072Y-53226791D01*
X184138384Y-53138384D01*
X184226791Y-53006072D01*
X184257836Y-52850000D01*
X184257836Y-51150000D01*
X184226791Y-50993928D01*
X184138384Y-50861616D01*
X184006072Y-50773209D01*
X183850000Y-50742164D01*
X182150000Y-50742164D01*
X181993928Y-50773209D01*
X181861616Y-50861616D01*
X181773209Y-50993928D01*
X181742164Y-51150000D01*
X85475000Y-51150000D01*
X85475000Y-50475000D01*
X184525000Y-50475000D01*
X184525001Y-59953217D01*
X184525001Y-59953217D01*
G37*
X184525001Y-59953217D02*
X184525000Y-59953222D01*
X184525001Y-69525000D01*
X183154002Y-69525000D01*
X183154002Y-69377857D01*
X183378911Y-69487915D01*
X183888854Y-69235741D01*
X184263477Y-68807616D01*
X184407903Y-68458910D01*
X184296889Y-68234000D01*
X183154000Y-68234000D01*
X183154000Y-68254000D01*
X182846000Y-68254000D01*
X182846000Y-68234000D01*
X181703111Y-68234000D01*
X181592097Y-68458910D01*
X181736523Y-68807616D01*
X182111146Y-69235741D01*
X182621089Y-69487915D01*
X182845998Y-69377857D01*
X182845998Y-69525000D01*
X85475000Y-69525000D01*
X85475000Y-68418910D01*
X85592097Y-68418910D01*
X85736523Y-68767616D01*
X86111146Y-69195741D01*
X86621089Y-69447915D01*
X86846000Y-69337856D01*
X86846000Y-68194000D01*
X87154000Y-68194000D01*
X87154000Y-69337856D01*
X87378911Y-69447915D01*
X87888854Y-69195741D01*
X88263477Y-68767616D01*
X88407903Y-68418910D01*
X88296889Y-68194000D01*
X87154000Y-68194000D01*
X86846000Y-68194000D01*
X85703111Y-68194000D01*
X85592097Y-68418910D01*
X85475000Y-68418910D01*
X85475000Y-67661090D01*
X85592097Y-67661090D01*
X85703111Y-67886000D01*
X86846000Y-67886000D01*
X86846000Y-67866000D01*
X87154000Y-67866000D01*
X87154000Y-67886000D01*
X88296889Y-67886000D01*
X88407903Y-67661090D01*
X88263477Y-67312384D01*
X87888854Y-66884259D01*
X87475579Y-66679889D01*
X87487725Y-66677473D01*
X87901199Y-66401199D01*
X88177473Y-65987725D01*
X88274488Y-65500000D01*
X88177473Y-65012275D01*
X87901199Y-64598801D01*
X87487725Y-64322527D01*
X87123109Y-64250000D01*
X86876891Y-64250000D01*
X86512275Y-64322527D01*
X86098801Y-64598801D01*
X85822527Y-65012275D01*
X85725512Y-65500000D01*
X85822527Y-65987725D01*
X86098801Y-66401199D01*
X86512275Y-66677473D01*
X86524421Y-66679889D01*
X86111146Y-66884259D01*
X85736523Y-67312384D01*
X85592097Y-67661090D01*
X85475000Y-67661090D01*
X85475000Y-62110000D01*
X85742164Y-62110000D01*
X85742164Y-63810000D01*
X85773209Y-63966072D01*
X85861616Y-64098384D01*
X85993928Y-64186791D01*
X86150000Y-64217836D01*
X87850000Y-64217836D01*
X88006072Y-64186791D01*
X88138384Y-64098384D01*
X88226791Y-63966072D01*
X88257836Y-63810000D01*
X88257836Y-62110000D01*
X88226791Y-61953928D01*
X88138384Y-61821616D01*
X88006072Y-61733209D01*
X87850000Y-61702164D01*
X86150000Y-61702164D01*
X85993928Y-61733209D01*
X85861616Y-61821616D01*
X85773209Y-61953928D01*
X85742164Y-62110000D01*
X85475000Y-62110000D01*
X85475000Y-57918910D01*
X85592097Y-57918910D01*
X85736523Y-58267616D01*
X86111146Y-58695741D01*
X86621089Y-58947915D01*
X86846000Y-58837856D01*
X86846000Y-57694000D01*
X87154000Y-57694000D01*
X87154000Y-58837856D01*
X87378911Y-58947915D01*
X87888854Y-58695741D01*
X88263477Y-58267616D01*
X88407903Y-57918910D01*
X88296889Y-57694000D01*
X87154000Y-57694000D01*
X86846000Y-57694000D01*
X85703111Y-57694000D01*
X85592097Y-57918910D01*
X85475000Y-57918910D01*
X85475000Y-57161090D01*
X85592097Y-57161090D01*
X85703111Y-57386000D01*
X86846000Y-57386000D01*
X86846000Y-57366000D01*
X87154000Y-57366000D01*
X87154000Y-57386000D01*
X88296889Y-57386000D01*
X88407903Y-57161090D01*
X88263477Y-56812384D01*
X87888854Y-56384259D01*
X87475579Y-56179889D01*
X87487725Y-56177473D01*
X87901199Y-55901199D01*
X88102453Y-55600000D01*
X171430073Y-55600000D01*
X181149700Y-65319628D01*
X181149700Y-65480909D01*
X181137946Y-65540000D01*
X181184513Y-65774108D01*
X181317125Y-65972575D01*
X181515592Y-66105187D01*
X181749700Y-66151754D01*
X181808791Y-66140000D01*
X181897547Y-66140000D01*
X182098801Y-66441199D01*
X182512275Y-66717473D01*
X182524421Y-66719889D01*
X182111146Y-66924259D01*
X181736523Y-67352384D01*
X181592097Y-67701090D01*
X181703111Y-67926000D01*
X182846000Y-67926000D01*
X182846000Y-67906000D01*
X183154000Y-67906000D01*
X183154000Y-67926000D01*
X184296889Y-67926000D01*
X184407903Y-67701090D01*
X184263477Y-67352384D01*
X183888854Y-66924259D01*
X183475579Y-66719889D01*
X183487725Y-66717473D01*
X183901199Y-66441199D01*
X184177473Y-66027725D01*
X184274488Y-65540000D01*
X184177473Y-65052275D01*
X183901199Y-64638801D01*
X183487725Y-64362527D01*
X183123109Y-64290000D01*
X182876891Y-64290000D01*
X182512275Y-64362527D01*
X182140745Y-64610775D01*
X182132181Y-64605053D01*
X179677128Y-62150000D01*
X181742164Y-62150000D01*
X181742164Y-63850000D01*
X181773209Y-64006072D01*
X181861616Y-64138384D01*
X181993928Y-64226791D01*
X182150000Y-64257836D01*
X183850000Y-64257836D01*
X184006072Y-64226791D01*
X184138384Y-64138384D01*
X184226791Y-64006072D01*
X184257836Y-63850000D01*
X184257836Y-62150000D01*
X184226791Y-61993928D01*
X184138384Y-61861616D01*
X184006072Y-61773209D01*
X183850000Y-61742164D01*
X182150000Y-61742164D01*
X181993928Y-61773209D01*
X181861616Y-61861616D01*
X181773209Y-61993928D01*
X181742164Y-62150000D01*
X179677128Y-62150000D01*
X174986038Y-57458910D01*
X181592097Y-57458910D01*
X181736523Y-57807616D01*
X182111146Y-58235741D01*
X182621089Y-58487915D01*
X182846000Y-58377856D01*
X182846000Y-57234000D01*
X183154000Y-57234000D01*
X183154000Y-58377856D01*
X183378911Y-58487915D01*
X183888854Y-58235741D01*
X184263477Y-57807616D01*
X184407903Y-57458910D01*
X184296889Y-57234000D01*
X183154000Y-57234000D01*
X182846000Y-57234000D01*
X181703111Y-57234000D01*
X181592097Y-57458910D01*
X174986038Y-57458910D01*
X174228218Y-56701090D01*
X181592097Y-56701090D01*
X181703111Y-56926000D01*
X182846000Y-56926000D01*
X182846000Y-56906000D01*
X183154000Y-56906000D01*
X183154000Y-56926000D01*
X184296889Y-56926000D01*
X184407903Y-56701090D01*
X184263477Y-56352384D01*
X183888854Y-55924259D01*
X183475579Y-55719889D01*
X183487725Y-55717473D01*
X183901199Y-55441199D01*
X184177473Y-55027725D01*
X184274488Y-54540000D01*
X184177473Y-54052275D01*
X183901199Y-53638801D01*
X183487725Y-53362527D01*
X183123109Y-53290000D01*
X182876891Y-53290000D01*
X182512275Y-53362527D01*
X182098801Y-53638801D01*
X181822527Y-54052275D01*
X181725512Y-54540000D01*
X181822527Y-55027725D01*
X182098801Y-55441199D01*
X182512275Y-55717473D01*
X182524421Y-55719889D01*
X182111146Y-55924259D01*
X181736523Y-56352384D01*
X181592097Y-56701090D01*
X174228218Y-56701090D01*
X172144649Y-54617522D01*
X172111175Y-54567425D01*
X171912708Y-54434813D01*
X171737691Y-54400000D01*
X171737686Y-54400000D01*
X171678600Y-54388247D01*
X171619514Y-54400000D01*
X88102453Y-54400000D01*
X87901199Y-54098801D01*
X87487725Y-53822527D01*
X87123109Y-53750000D01*
X86876891Y-53750000D01*
X86512275Y-53822527D01*
X86098801Y-54098801D01*
X85822527Y-54512275D01*
X85725512Y-55000000D01*
X85822527Y-55487725D01*
X86098801Y-55901199D01*
X86512275Y-56177473D01*
X86524421Y-56179889D01*
X86111146Y-56384259D01*
X85736523Y-56812384D01*
X85592097Y-57161090D01*
X85475000Y-57161090D01*
X85475000Y-51610000D01*
X85742164Y-51610000D01*
X85742164Y-53310000D01*
X85773209Y-53466072D01*
X85861616Y-53598384D01*
X85993928Y-53686791D01*
X86150000Y-53717836D01*
X87850000Y-53717836D01*
X88006072Y-53686791D01*
X88138384Y-53598384D01*
X88226791Y-53466072D01*
X88257836Y-53310000D01*
X88257836Y-51610000D01*
X88226791Y-51453928D01*
X88138384Y-51321616D01*
X88006072Y-51233209D01*
X87850000Y-51202164D01*
X86150000Y-51202164D01*
X85993928Y-51233209D01*
X85861616Y-51321616D01*
X85773209Y-51453928D01*
X85742164Y-51610000D01*
X85475000Y-51610000D01*
X85475000Y-51150000D01*
X181742164Y-51150000D01*
X181742164Y-52850000D01*
X181773209Y-53006072D01*
X181861616Y-53138384D01*
X181993928Y-53226791D01*
X182150000Y-53257836D01*
X183850000Y-53257836D01*
X184006072Y-53226791D01*
X184138384Y-53138384D01*
X184226791Y-53006072D01*
X184257836Y-52850000D01*
X184257836Y-51150000D01*
X184226791Y-50993928D01*
X184138384Y-50861616D01*
X184006072Y-50773209D01*
X183850000Y-50742164D01*
X182150000Y-50742164D01*
X181993928Y-50773209D01*
X181861616Y-50861616D01*
X181773209Y-50993928D01*
X181742164Y-51150000D01*
X85475000Y-51150000D01*
X85475000Y-50475000D01*
X184525000Y-50475000D01*
X184525001Y-59953217D01*
G04 #@! TD*
M02*
