G04 #@! TF.GenerationSoftware,KiCad,Pcbnew,(5.0.0)*
G04 #@! TF.CreationDate,2020-03-31T10:14:19-04:00*
G04 #@! TF.ProjectId,WS2812 STRIP 10CM,57533238313220535452495020313043,rev?*
G04 #@! TF.SameCoordinates,Original*
G04 #@! TF.FileFunction,Paste,Top*
G04 #@! TF.FilePolarity,Positive*
%FSLAX46Y46*%
G04 Gerber Fmt 4.6, Leading zero omitted, Abs format (unit mm)*
G04 Created by KiCad (PCBNEW (5.0.0)) date 03/31/20 10:14:19*
%MOMM*%
%LPD*%
G01*
G04 APERTURE LIST*
%ADD10R,1.000000X1.600000*%
%ADD11R,0.750000X0.800000*%
G04 APERTURE END LIST*
D10*
G04 #@! TO.C,U8*
X122600000Y-62500000D03*
X119400000Y-62500000D03*
X122600000Y-67500000D03*
X119400000Y-67500000D03*
G04 #@! TD*
G04 #@! TO.C,U16*
X158600000Y-62500000D03*
X155400000Y-62500000D03*
X158600000Y-67500000D03*
X155400000Y-67500000D03*
G04 #@! TD*
G04 #@! TO.C,U20*
X173400000Y-67500000D03*
X176600000Y-67500000D03*
X173400000Y-62500000D03*
X176600000Y-62500000D03*
G04 #@! TD*
G04 #@! TO.C,U18*
X167600000Y-62500000D03*
X164400000Y-62500000D03*
X167600000Y-67500000D03*
X164400000Y-67500000D03*
G04 #@! TD*
G04 #@! TO.C,U10*
X131600000Y-62500000D03*
X128400000Y-62500000D03*
X131600000Y-67500000D03*
X128400000Y-67500000D03*
G04 #@! TD*
G04 #@! TO.C,U4*
X101400000Y-67500000D03*
X104600000Y-67500000D03*
X101400000Y-62500000D03*
X104600000Y-62500000D03*
G04 #@! TD*
G04 #@! TO.C,U2*
X95600000Y-62500000D03*
X92400000Y-62500000D03*
X95600000Y-67500000D03*
X92400000Y-67500000D03*
G04 #@! TD*
G04 #@! TO.C,U6*
X110400000Y-67500000D03*
X113600000Y-67500000D03*
X110400000Y-62500000D03*
X113600000Y-62500000D03*
G04 #@! TD*
G04 #@! TO.C,U14*
X146400000Y-67500000D03*
X149600000Y-67500000D03*
X146400000Y-62500000D03*
X149600000Y-62500000D03*
G04 #@! TD*
G04 #@! TO.C,U12*
X137400000Y-67500000D03*
X140600000Y-67500000D03*
X137400000Y-62500000D03*
X140600000Y-62500000D03*
G04 #@! TD*
D11*
G04 #@! TO.C,C1*
X98500000Y-60500000D03*
X98500000Y-59000000D03*
G04 #@! TD*
G04 #@! TO.C,C2*
X107500000Y-60500000D03*
X107500000Y-59000000D03*
G04 #@! TD*
G04 #@! TO.C,C3*
X116500000Y-59000000D03*
X116500000Y-60500000D03*
G04 #@! TD*
G04 #@! TO.C,C4*
X125500000Y-59000000D03*
X125500000Y-60500000D03*
G04 #@! TD*
G04 #@! TO.C,C5*
X134500000Y-60500000D03*
X134500000Y-59000000D03*
G04 #@! TD*
G04 #@! TO.C,C6*
X143500000Y-60500000D03*
X143500000Y-59000000D03*
G04 #@! TD*
G04 #@! TO.C,C7*
X152500000Y-59000000D03*
X152500000Y-60500000D03*
G04 #@! TD*
G04 #@! TO.C,C8*
X161500000Y-59000000D03*
X161500000Y-60500000D03*
G04 #@! TD*
D10*
G04 #@! TO.C,U1*
X92400000Y-57500000D03*
X95600000Y-57500000D03*
X92400000Y-52500000D03*
X95600000Y-52500000D03*
G04 #@! TD*
G04 #@! TO.C,U3*
X104600000Y-52500000D03*
X101400000Y-52500000D03*
X104600000Y-57500000D03*
X101400000Y-57500000D03*
G04 #@! TD*
G04 #@! TO.C,U5*
X113600000Y-52500000D03*
X110400000Y-52500000D03*
X113600000Y-57500000D03*
X110400000Y-57500000D03*
G04 #@! TD*
G04 #@! TO.C,U7*
X119400000Y-57500000D03*
X122600000Y-57500000D03*
X119400000Y-52500000D03*
X122600000Y-52500000D03*
G04 #@! TD*
G04 #@! TO.C,U9*
X128400000Y-57500000D03*
X131600000Y-57500000D03*
X128400000Y-52500000D03*
X131600000Y-52500000D03*
G04 #@! TD*
G04 #@! TO.C,U11*
X140600000Y-52500000D03*
X137400000Y-52500000D03*
X140600000Y-57500000D03*
X137400000Y-57500000D03*
G04 #@! TD*
G04 #@! TO.C,U13*
X149600000Y-52500000D03*
X146400000Y-52500000D03*
X149600000Y-57500000D03*
X146400000Y-57500000D03*
G04 #@! TD*
G04 #@! TO.C,U15*
X155400000Y-57500000D03*
X158600000Y-57500000D03*
X155400000Y-52500000D03*
X158600000Y-52500000D03*
G04 #@! TD*
G04 #@! TO.C,U17*
X164400000Y-57500000D03*
X167600000Y-57500000D03*
X164400000Y-52500000D03*
X167600000Y-52500000D03*
G04 #@! TD*
G04 #@! TO.C,U19*
X176600000Y-52500000D03*
X173400000Y-52500000D03*
X176600000Y-57500000D03*
X173400000Y-57500000D03*
G04 #@! TD*
D11*
G04 #@! TO.C,C9*
X170500000Y-60500000D03*
X170500000Y-59000000D03*
G04 #@! TD*
M02*
