G04 #@! TF.GenerationSoftware,KiCad,Pcbnew,(5.0.0)*
G04 #@! TF.CreationDate,2020-03-31T10:14:19-04:00*
G04 #@! TF.ProjectId,WS2812 STRIP 10CM,57533238313220535452495020313043,rev?*
G04 #@! TF.SameCoordinates,Original*
G04 #@! TF.FileFunction,Legend,Top*
G04 #@! TF.FilePolarity,Positive*
%FSLAX46Y46*%
G04 Gerber Fmt 4.6, Leading zero omitted, Abs format (unit mm)*
G04 Created by KiCad (PCBNEW (5.0.0)) date 03/31/20 10:14:19*
%MOMM*%
%LPD*%
G01*
G04 APERTURE LIST*
%ADD10C,0.200000*%
%ADD11C,0.100000*%
%ADD12C,0.120000*%
%ADD13C,0.150000*%
G04 APERTURE END LIST*
D10*
X179047619Y-63607142D02*
X180047619Y-63607142D01*
X179047619Y-64321428D02*
X180047619Y-64321428D01*
X179047619Y-65178571D01*
X180047619Y-65178571D01*
X179047619Y-65892857D02*
X180047619Y-65892857D01*
X180047619Y-66464285D01*
X180000000Y-66607142D01*
X179952380Y-66678571D01*
X179857142Y-66750000D01*
X179714285Y-66750000D01*
X179619047Y-66678571D01*
X179571428Y-66607142D01*
X179523809Y-66464285D01*
X179523809Y-65892857D01*
X180047619Y-67392857D02*
X179238095Y-67392857D01*
X179142857Y-67464285D01*
X179095238Y-67535714D01*
X179047619Y-67678571D01*
X179047619Y-67964285D01*
X179095238Y-68107142D01*
X179142857Y-68178571D01*
X179238095Y-68250000D01*
X180047619Y-68250000D01*
X180047619Y-68750000D02*
X180047619Y-69607142D01*
X179047619Y-69178571D02*
X180047619Y-69178571D01*
X90547619Y-62873809D02*
X90547619Y-63121428D01*
X90500000Y-63245238D01*
X90404761Y-63369047D01*
X90214285Y-63430952D01*
X89880952Y-63430952D01*
X89690476Y-63369047D01*
X89595238Y-63245238D01*
X89547619Y-63121428D01*
X89547619Y-62873809D01*
X89595238Y-62750000D01*
X89690476Y-62626190D01*
X89880952Y-62564285D01*
X90214285Y-62564285D01*
X90404761Y-62626190D01*
X90500000Y-62750000D01*
X90547619Y-62873809D01*
X90547619Y-63988095D02*
X89738095Y-63988095D01*
X89642857Y-64050000D01*
X89595238Y-64111904D01*
X89547619Y-64235714D01*
X89547619Y-64483333D01*
X89595238Y-64607142D01*
X89642857Y-64669047D01*
X89738095Y-64730952D01*
X90547619Y-64730952D01*
X90547619Y-65164285D02*
X90547619Y-65907142D01*
X89547619Y-65535714D02*
X90547619Y-65535714D01*
X89547619Y-66340476D02*
X90547619Y-66340476D01*
X90547619Y-66835714D01*
X90500000Y-66959523D01*
X90452380Y-67021428D01*
X90357142Y-67083333D01*
X90214285Y-67083333D01*
X90119047Y-67021428D01*
X90071428Y-66959523D01*
X90023809Y-66835714D01*
X90023809Y-66340476D01*
X90547619Y-67640476D02*
X89738095Y-67640476D01*
X89642857Y-67702380D01*
X89595238Y-67764285D01*
X89547619Y-67888095D01*
X89547619Y-68135714D01*
X89595238Y-68259523D01*
X89642857Y-68321428D01*
X89738095Y-68383333D01*
X90547619Y-68383333D01*
X90547619Y-68816666D02*
X90547619Y-69559523D01*
X89547619Y-69188095D02*
X90547619Y-69188095D01*
X178952380Y-59126190D02*
X178952380Y-58878571D01*
X179000000Y-58754761D01*
X179095238Y-58630952D01*
X179285714Y-58569047D01*
X179619047Y-58569047D01*
X179809523Y-58630952D01*
X179904761Y-58754761D01*
X179952380Y-58878571D01*
X179952380Y-59126190D01*
X179904761Y-59250000D01*
X179809523Y-59373809D01*
X179619047Y-59435714D01*
X179285714Y-59435714D01*
X179095238Y-59373809D01*
X179000000Y-59250000D01*
X178952380Y-59126190D01*
X178952380Y-58011904D02*
X179761904Y-58011904D01*
X179857142Y-57950000D01*
X179904761Y-57888095D01*
X179952380Y-57764285D01*
X179952380Y-57516666D01*
X179904761Y-57392857D01*
X179857142Y-57330952D01*
X179761904Y-57269047D01*
X178952380Y-57269047D01*
X178952380Y-56835714D02*
X178952380Y-56092857D01*
X179952380Y-56464285D02*
X178952380Y-56464285D01*
X179952380Y-55659523D02*
X178952380Y-55659523D01*
X178952380Y-55164285D01*
X179000000Y-55040476D01*
X179047619Y-54978571D01*
X179142857Y-54916666D01*
X179285714Y-54916666D01*
X179380952Y-54978571D01*
X179428571Y-55040476D01*
X179476190Y-55164285D01*
X179476190Y-55659523D01*
X178952380Y-54359523D02*
X179761904Y-54359523D01*
X179857142Y-54297619D01*
X179904761Y-54235714D01*
X179952380Y-54111904D01*
X179952380Y-53864285D01*
X179904761Y-53740476D01*
X179857142Y-53678571D01*
X179761904Y-53616666D01*
X178952380Y-53616666D01*
X178952380Y-53183333D02*
X178952380Y-52440476D01*
X179952380Y-52811904D02*
X178952380Y-52811904D01*
X89547619Y-52607142D02*
X90547619Y-52607142D01*
X89547619Y-53321428D02*
X90547619Y-53321428D01*
X89547619Y-54178571D01*
X90547619Y-54178571D01*
X89547619Y-54892857D02*
X90547619Y-54892857D01*
X90547619Y-55464285D01*
X90500000Y-55607142D01*
X90452380Y-55678571D01*
X90357142Y-55750000D01*
X90214285Y-55750000D01*
X90119047Y-55678571D01*
X90071428Y-55607142D01*
X90023809Y-55464285D01*
X90023809Y-54892857D01*
X90547619Y-56392857D02*
X89738095Y-56392857D01*
X89642857Y-56464285D01*
X89595238Y-56535714D01*
X89547619Y-56678571D01*
X89547619Y-56964285D01*
X89595238Y-57107142D01*
X89642857Y-57178571D01*
X89738095Y-57250000D01*
X90547619Y-57250000D01*
X90547619Y-57750000D02*
X90547619Y-58607142D01*
X89547619Y-58178571D02*
X90547619Y-58178571D01*
D11*
G04 #@! TO.C,U8*
X121900000Y-63500000D02*
X123600000Y-63500000D01*
X121900000Y-63400000D02*
X121900000Y-63500000D01*
X121900000Y-61500000D02*
X121900000Y-63400000D01*
X122600000Y-61500000D02*
X121900000Y-61500000D01*
D12*
X118400000Y-68500000D02*
X118400000Y-61500000D01*
X123600000Y-68500000D02*
X123600000Y-61500000D01*
X123600000Y-61500000D02*
X122600000Y-61500000D01*
D11*
G04 #@! TO.C,U16*
X157900000Y-63500000D02*
X159600000Y-63500000D01*
X157900000Y-63400000D02*
X157900000Y-63500000D01*
X157900000Y-61500000D02*
X157900000Y-63400000D01*
X158600000Y-61500000D02*
X157900000Y-61500000D01*
D12*
X154400000Y-68500000D02*
X154400000Y-61500000D01*
X159600000Y-68500000D02*
X159600000Y-61500000D01*
X159600000Y-61500000D02*
X158600000Y-61500000D01*
G04 #@! TO.C,U20*
X177600000Y-61500000D02*
X176600000Y-61500000D01*
X177600000Y-68500000D02*
X177600000Y-61500000D01*
X172400000Y-68500000D02*
X172400000Y-61500000D01*
D11*
X176600000Y-61500000D02*
X175900000Y-61500000D01*
X175900000Y-61500000D02*
X175900000Y-63400000D01*
X175900000Y-63400000D02*
X175900000Y-63500000D01*
X175900000Y-63500000D02*
X177600000Y-63500000D01*
G04 #@! TO.C,U18*
X166900000Y-63500000D02*
X168600000Y-63500000D01*
X166900000Y-63400000D02*
X166900000Y-63500000D01*
X166900000Y-61500000D02*
X166900000Y-63400000D01*
X167600000Y-61500000D02*
X166900000Y-61500000D01*
D12*
X163400000Y-68500000D02*
X163400000Y-61500000D01*
X168600000Y-68500000D02*
X168600000Y-61500000D01*
X168600000Y-61500000D02*
X167600000Y-61500000D01*
D11*
G04 #@! TO.C,U10*
X130900000Y-63500000D02*
X132600000Y-63500000D01*
X130900000Y-63400000D02*
X130900000Y-63500000D01*
X130900000Y-61500000D02*
X130900000Y-63400000D01*
X131600000Y-61500000D02*
X130900000Y-61500000D01*
D12*
X127400000Y-68500000D02*
X127400000Y-61500000D01*
X132600000Y-68500000D02*
X132600000Y-61500000D01*
X132600000Y-61500000D02*
X131600000Y-61500000D01*
G04 #@! TO.C,U4*
X105600000Y-61500000D02*
X104600000Y-61500000D01*
X105600000Y-68500000D02*
X105600000Y-61500000D01*
X100400000Y-68500000D02*
X100400000Y-61500000D01*
D11*
X104600000Y-61500000D02*
X103900000Y-61500000D01*
X103900000Y-61500000D02*
X103900000Y-63400000D01*
X103900000Y-63400000D02*
X103900000Y-63500000D01*
X103900000Y-63500000D02*
X105600000Y-63500000D01*
G04 #@! TO.C,U2*
X94900000Y-63500000D02*
X96600000Y-63500000D01*
X94900000Y-63400000D02*
X94900000Y-63500000D01*
X94900000Y-61500000D02*
X94900000Y-63400000D01*
X95600000Y-61500000D02*
X94900000Y-61500000D01*
D12*
X91400000Y-68500000D02*
X91400000Y-61500000D01*
X96600000Y-68500000D02*
X96600000Y-61500000D01*
X96600000Y-61500000D02*
X95600000Y-61500000D01*
G04 #@! TO.C,U6*
X114600000Y-61500000D02*
X113600000Y-61500000D01*
X114600000Y-68500000D02*
X114600000Y-61500000D01*
X109400000Y-68500000D02*
X109400000Y-61500000D01*
D11*
X113600000Y-61500000D02*
X112900000Y-61500000D01*
X112900000Y-61500000D02*
X112900000Y-63400000D01*
X112900000Y-63400000D02*
X112900000Y-63500000D01*
X112900000Y-63500000D02*
X114600000Y-63500000D01*
D12*
G04 #@! TO.C,U14*
X150600000Y-61500000D02*
X149600000Y-61500000D01*
X150600000Y-68500000D02*
X150600000Y-61500000D01*
X145400000Y-68500000D02*
X145400000Y-61500000D01*
D11*
X149600000Y-61500000D02*
X148900000Y-61500000D01*
X148900000Y-61500000D02*
X148900000Y-63400000D01*
X148900000Y-63400000D02*
X148900000Y-63500000D01*
X148900000Y-63500000D02*
X150600000Y-63500000D01*
D12*
G04 #@! TO.C,U12*
X141600000Y-61500000D02*
X140600000Y-61500000D01*
X141600000Y-68500000D02*
X141600000Y-61500000D01*
X136400000Y-68500000D02*
X136400000Y-61500000D01*
D11*
X140600000Y-61500000D02*
X139900000Y-61500000D01*
X139900000Y-61500000D02*
X139900000Y-63400000D01*
X139900000Y-63400000D02*
X139900000Y-63500000D01*
X139900000Y-63500000D02*
X141600000Y-63500000D01*
D12*
G04 #@! TO.C,C1*
X97900000Y-60100000D02*
X97900000Y-59400000D01*
X99100000Y-59400000D02*
X99100000Y-60100000D01*
G04 #@! TO.C,C2*
X106900000Y-60100000D02*
X106900000Y-59400000D01*
X108100000Y-59400000D02*
X108100000Y-60100000D01*
G04 #@! TO.C,C3*
X117100000Y-59400000D02*
X117100000Y-60100000D01*
X115900000Y-60100000D02*
X115900000Y-59400000D01*
G04 #@! TO.C,C4*
X126100000Y-59400000D02*
X126100000Y-60100000D01*
X124900000Y-60100000D02*
X124900000Y-59400000D01*
G04 #@! TO.C,C5*
X133900000Y-60100000D02*
X133900000Y-59400000D01*
X135100000Y-59400000D02*
X135100000Y-60100000D01*
G04 #@! TO.C,C6*
X142900000Y-60100000D02*
X142900000Y-59400000D01*
X144100000Y-59400000D02*
X144100000Y-60100000D01*
G04 #@! TO.C,C7*
X153100000Y-59400000D02*
X153100000Y-60100000D01*
X151900000Y-60100000D02*
X151900000Y-59400000D01*
G04 #@! TO.C,C8*
X162100000Y-59400000D02*
X162100000Y-60100000D01*
X160900000Y-60100000D02*
X160900000Y-59400000D01*
G04 #@! TO.C,J1*
X85670000Y-58870000D02*
X88330000Y-58870000D01*
X85670000Y-53730000D02*
X85670000Y-58870000D01*
X88330000Y-53730000D02*
X88330000Y-58870000D01*
X85670000Y-53730000D02*
X88330000Y-53730000D01*
X85670000Y-52460000D02*
X85670000Y-51130000D01*
X85670000Y-51130000D02*
X87000000Y-51130000D01*
G04 #@! TO.C,J2*
X181670000Y-50670000D02*
X183000000Y-50670000D01*
X181670000Y-52000000D02*
X181670000Y-50670000D01*
X181670000Y-53270000D02*
X184330000Y-53270000D01*
X184330000Y-53270000D02*
X184330000Y-58410000D01*
X181670000Y-53270000D02*
X181670000Y-58410000D01*
X181670000Y-58410000D02*
X184330000Y-58410000D01*
G04 #@! TO.C,U1*
X96600000Y-51500000D02*
X95600000Y-51500000D01*
X96600000Y-58500000D02*
X96600000Y-51500000D01*
X91400000Y-58500000D02*
X91400000Y-51500000D01*
D11*
X95600000Y-51500000D02*
X94900000Y-51500000D01*
X94900000Y-51500000D02*
X94900000Y-53400000D01*
X94900000Y-53400000D02*
X94900000Y-53500000D01*
X94900000Y-53500000D02*
X96600000Y-53500000D01*
G04 #@! TO.C,U3*
X103900000Y-53500000D02*
X105600000Y-53500000D01*
X103900000Y-53400000D02*
X103900000Y-53500000D01*
X103900000Y-51500000D02*
X103900000Y-53400000D01*
X104600000Y-51500000D02*
X103900000Y-51500000D01*
D12*
X100400000Y-58500000D02*
X100400000Y-51500000D01*
X105600000Y-58500000D02*
X105600000Y-51500000D01*
X105600000Y-51500000D02*
X104600000Y-51500000D01*
D11*
G04 #@! TO.C,U5*
X112900000Y-53500000D02*
X114600000Y-53500000D01*
X112900000Y-53400000D02*
X112900000Y-53500000D01*
X112900000Y-51500000D02*
X112900000Y-53400000D01*
X113600000Y-51500000D02*
X112900000Y-51500000D01*
D12*
X109400000Y-58500000D02*
X109400000Y-51500000D01*
X114600000Y-58500000D02*
X114600000Y-51500000D01*
X114600000Y-51500000D02*
X113600000Y-51500000D01*
G04 #@! TO.C,U7*
X123600000Y-51500000D02*
X122600000Y-51500000D01*
X123600000Y-58500000D02*
X123600000Y-51500000D01*
X118400000Y-58500000D02*
X118400000Y-51500000D01*
D11*
X122600000Y-51500000D02*
X121900000Y-51500000D01*
X121900000Y-51500000D02*
X121900000Y-53400000D01*
X121900000Y-53400000D02*
X121900000Y-53500000D01*
X121900000Y-53500000D02*
X123600000Y-53500000D01*
D12*
G04 #@! TO.C,U9*
X132600000Y-51500000D02*
X131600000Y-51500000D01*
X132600000Y-58500000D02*
X132600000Y-51500000D01*
X127400000Y-58500000D02*
X127400000Y-51500000D01*
D11*
X131600000Y-51500000D02*
X130900000Y-51500000D01*
X130900000Y-51500000D02*
X130900000Y-53400000D01*
X130900000Y-53400000D02*
X130900000Y-53500000D01*
X130900000Y-53500000D02*
X132600000Y-53500000D01*
G04 #@! TO.C,U11*
X139900000Y-53500000D02*
X141600000Y-53500000D01*
X139900000Y-53400000D02*
X139900000Y-53500000D01*
X139900000Y-51500000D02*
X139900000Y-53400000D01*
X140600000Y-51500000D02*
X139900000Y-51500000D01*
D12*
X136400000Y-58500000D02*
X136400000Y-51500000D01*
X141600000Y-58500000D02*
X141600000Y-51500000D01*
X141600000Y-51500000D02*
X140600000Y-51500000D01*
D11*
G04 #@! TO.C,U13*
X148900000Y-53500000D02*
X150600000Y-53500000D01*
X148900000Y-53400000D02*
X148900000Y-53500000D01*
X148900000Y-51500000D02*
X148900000Y-53400000D01*
X149600000Y-51500000D02*
X148900000Y-51500000D01*
D12*
X145400000Y-58500000D02*
X145400000Y-51500000D01*
X150600000Y-58500000D02*
X150600000Y-51500000D01*
X150600000Y-51500000D02*
X149600000Y-51500000D01*
G04 #@! TO.C,U15*
X159600000Y-51500000D02*
X158600000Y-51500000D01*
X159600000Y-58500000D02*
X159600000Y-51500000D01*
X154400000Y-58500000D02*
X154400000Y-51500000D01*
D11*
X158600000Y-51500000D02*
X157900000Y-51500000D01*
X157900000Y-51500000D02*
X157900000Y-53400000D01*
X157900000Y-53400000D02*
X157900000Y-53500000D01*
X157900000Y-53500000D02*
X159600000Y-53500000D01*
D12*
G04 #@! TO.C,U17*
X168600000Y-51500000D02*
X167600000Y-51500000D01*
X168600000Y-58500000D02*
X168600000Y-51500000D01*
X163400000Y-58500000D02*
X163400000Y-51500000D01*
D11*
X167600000Y-51500000D02*
X166900000Y-51500000D01*
X166900000Y-51500000D02*
X166900000Y-53400000D01*
X166900000Y-53400000D02*
X166900000Y-53500000D01*
X166900000Y-53500000D02*
X168600000Y-53500000D01*
G04 #@! TO.C,U19*
X175900000Y-53500000D02*
X177600000Y-53500000D01*
X175900000Y-53400000D02*
X175900000Y-53500000D01*
X175900000Y-51500000D02*
X175900000Y-53400000D01*
X176600000Y-51500000D02*
X175900000Y-51500000D01*
D12*
X172400000Y-58500000D02*
X172400000Y-51500000D01*
X177600000Y-58500000D02*
X177600000Y-51500000D01*
X177600000Y-51500000D02*
X176600000Y-51500000D01*
G04 #@! TO.C,C9*
X169900000Y-60100000D02*
X169900000Y-59400000D01*
X171100000Y-59400000D02*
X171100000Y-60100000D01*
G04 #@! TO.C,J3*
X181670000Y-61670000D02*
X183000000Y-61670000D01*
X181670000Y-63000000D02*
X181670000Y-61670000D01*
X181670000Y-64270000D02*
X184330000Y-64270000D01*
X184330000Y-64270000D02*
X184330000Y-69410000D01*
X181670000Y-64270000D02*
X181670000Y-69410000D01*
X181670000Y-69410000D02*
X184330000Y-69410000D01*
G04 #@! TO.C,J4*
X85670000Y-69370000D02*
X88330000Y-69370000D01*
X85670000Y-64230000D02*
X85670000Y-69370000D01*
X88330000Y-64230000D02*
X88330000Y-69370000D01*
X85670000Y-64230000D02*
X88330000Y-64230000D01*
X85670000Y-62960000D02*
X85670000Y-61630000D01*
X85670000Y-61630000D02*
X87000000Y-61630000D01*
G04 #@! TO.C,J1*
D13*
X89666666Y-50952380D02*
X89666666Y-51666666D01*
X89619047Y-51809523D01*
X89523809Y-51904761D01*
X89380952Y-51952380D01*
X89285714Y-51952380D01*
X90666666Y-51952380D02*
X90095238Y-51952380D01*
X90380952Y-51952380D02*
X90380952Y-50952380D01*
X90285714Y-51095238D01*
X90190476Y-51190476D01*
X90095238Y-51238095D01*
G04 #@! TO.C,J2*
X179166666Y-50452380D02*
X179166666Y-51166666D01*
X179119047Y-51309523D01*
X179023809Y-51404761D01*
X178880952Y-51452380D01*
X178785714Y-51452380D01*
X179595238Y-50547619D02*
X179642857Y-50500000D01*
X179738095Y-50452380D01*
X179976190Y-50452380D01*
X180071428Y-50500000D01*
X180119047Y-50547619D01*
X180166666Y-50642857D01*
X180166666Y-50738095D01*
X180119047Y-50880952D01*
X179547619Y-51452380D01*
X180166666Y-51452380D01*
G04 #@! TO.C,J3*
X179166666Y-61452380D02*
X179166666Y-62166666D01*
X179119047Y-62309523D01*
X179023809Y-62404761D01*
X178880952Y-62452380D01*
X178785714Y-62452380D01*
X179547619Y-61452380D02*
X180166666Y-61452380D01*
X179833333Y-61833333D01*
X179976190Y-61833333D01*
X180071428Y-61880952D01*
X180119047Y-61928571D01*
X180166666Y-62023809D01*
X180166666Y-62261904D01*
X180119047Y-62357142D01*
X180071428Y-62404761D01*
X179976190Y-62452380D01*
X179690476Y-62452380D01*
X179595238Y-62404761D01*
X179547619Y-62357142D01*
G04 #@! TO.C,J4*
X89666666Y-60452380D02*
X89666666Y-61166666D01*
X89619047Y-61309523D01*
X89523809Y-61404761D01*
X89380952Y-61452380D01*
X89285714Y-61452380D01*
X90571428Y-60785714D02*
X90571428Y-61452380D01*
X90333333Y-60404761D02*
X90095238Y-61119047D01*
X90714285Y-61119047D01*
G04 #@! TD*
M02*
