G04 #@! TF.GenerationSoftware,KiCad,Pcbnew,(5.0.0)*
G04 #@! TF.CreationDate,2020-03-31T10:14:19-04:00*
G04 #@! TF.ProjectId,WS2812 STRIP 10CM,57533238313220535452495020313043,rev?*
G04 #@! TF.SameCoordinates,Original*
G04 #@! TF.FileFunction,Legend,Bot*
G04 #@! TF.FilePolarity,Positive*
%FSLAX46Y46*%
G04 Gerber Fmt 4.6, Leading zero omitted, Abs format (unit mm)*
G04 Created by KiCad (PCBNEW (5.0.0)) date 03/31/20 10:14:19*
%MOMM*%
%LPD*%
G01*
G04 APERTURE LIST*
%ADD10C,0.100000*%
%ADD11C,0.150000*%
G04 APERTURE END LIST*
D10*
G04 #@! TO.C,U8*
X123500000Y-67500000D02*
X123500000Y-62500000D01*
X123200000Y-67500000D02*
X123500000Y-67500000D01*
X123200000Y-68400000D02*
X123200000Y-67500000D01*
X122000000Y-68400000D02*
X123200000Y-68400000D01*
X122000000Y-67500000D02*
X122000000Y-68400000D01*
X120000000Y-67500000D02*
X122000000Y-67500000D01*
X120000000Y-68400000D02*
X120000000Y-67500000D01*
X118800000Y-68400000D02*
X120000000Y-68400000D01*
X118800000Y-67500000D02*
X118800000Y-68400000D01*
X118500000Y-67500000D02*
X118800000Y-67500000D01*
X118500000Y-62500000D02*
X118500000Y-67500000D01*
X118800000Y-62500000D02*
X118500000Y-62500000D01*
X118800000Y-61600000D02*
X118800000Y-62500000D01*
X120000000Y-61600000D02*
X118800000Y-61600000D01*
X120000000Y-62500000D02*
X120000000Y-61600000D01*
X122000000Y-62500000D02*
X120000000Y-62500000D01*
X122000000Y-61600000D02*
X122000000Y-62500000D01*
X123200000Y-61600000D02*
X122000000Y-61600000D01*
X123200000Y-62500000D02*
X123200000Y-61600000D01*
X123500000Y-62500000D02*
X123200000Y-62500000D01*
G04 #@! TO.C,U16*
X159500000Y-67500000D02*
X159500000Y-62500000D01*
X159200000Y-67500000D02*
X159500000Y-67500000D01*
X159200000Y-68400000D02*
X159200000Y-67500000D01*
X158000000Y-68400000D02*
X159200000Y-68400000D01*
X158000000Y-67500000D02*
X158000000Y-68400000D01*
X156000000Y-67500000D02*
X158000000Y-67500000D01*
X156000000Y-68400000D02*
X156000000Y-67500000D01*
X154800000Y-68400000D02*
X156000000Y-68400000D01*
X154800000Y-67500000D02*
X154800000Y-68400000D01*
X154500000Y-67500000D02*
X154800000Y-67500000D01*
X154500000Y-62500000D02*
X154500000Y-67500000D01*
X154800000Y-62500000D02*
X154500000Y-62500000D01*
X154800000Y-61600000D02*
X154800000Y-62500000D01*
X156000000Y-61600000D02*
X154800000Y-61600000D01*
X156000000Y-62500000D02*
X156000000Y-61600000D01*
X158000000Y-62500000D02*
X156000000Y-62500000D01*
X158000000Y-61600000D02*
X158000000Y-62500000D01*
X159200000Y-61600000D02*
X158000000Y-61600000D01*
X159200000Y-62500000D02*
X159200000Y-61600000D01*
X159500000Y-62500000D02*
X159200000Y-62500000D01*
G04 #@! TO.C,U20*
X177500000Y-62500000D02*
X177200000Y-62500000D01*
X177200000Y-62500000D02*
X177200000Y-61600000D01*
X177200000Y-61600000D02*
X176000000Y-61600000D01*
X176000000Y-61600000D02*
X176000000Y-62500000D01*
X176000000Y-62500000D02*
X174000000Y-62500000D01*
X174000000Y-62500000D02*
X174000000Y-61600000D01*
X174000000Y-61600000D02*
X172800000Y-61600000D01*
X172800000Y-61600000D02*
X172800000Y-62500000D01*
X172800000Y-62500000D02*
X172500000Y-62500000D01*
X172500000Y-62500000D02*
X172500000Y-67500000D01*
X172500000Y-67500000D02*
X172800000Y-67500000D01*
X172800000Y-67500000D02*
X172800000Y-68400000D01*
X172800000Y-68400000D02*
X174000000Y-68400000D01*
X174000000Y-68400000D02*
X174000000Y-67500000D01*
X174000000Y-67500000D02*
X176000000Y-67500000D01*
X176000000Y-67500000D02*
X176000000Y-68400000D01*
X176000000Y-68400000D02*
X177200000Y-68400000D01*
X177200000Y-68400000D02*
X177200000Y-67500000D01*
X177200000Y-67500000D02*
X177500000Y-67500000D01*
X177500000Y-67500000D02*
X177500000Y-62500000D01*
G04 #@! TO.C,U18*
X168500000Y-67500000D02*
X168500000Y-62500000D01*
X168200000Y-67500000D02*
X168500000Y-67500000D01*
X168200000Y-68400000D02*
X168200000Y-67500000D01*
X167000000Y-68400000D02*
X168200000Y-68400000D01*
X167000000Y-67500000D02*
X167000000Y-68400000D01*
X165000000Y-67500000D02*
X167000000Y-67500000D01*
X165000000Y-68400000D02*
X165000000Y-67500000D01*
X163800000Y-68400000D02*
X165000000Y-68400000D01*
X163800000Y-67500000D02*
X163800000Y-68400000D01*
X163500000Y-67500000D02*
X163800000Y-67500000D01*
X163500000Y-62500000D02*
X163500000Y-67500000D01*
X163800000Y-62500000D02*
X163500000Y-62500000D01*
X163800000Y-61600000D02*
X163800000Y-62500000D01*
X165000000Y-61600000D02*
X163800000Y-61600000D01*
X165000000Y-62500000D02*
X165000000Y-61600000D01*
X167000000Y-62500000D02*
X165000000Y-62500000D01*
X167000000Y-61600000D02*
X167000000Y-62500000D01*
X168200000Y-61600000D02*
X167000000Y-61600000D01*
X168200000Y-62500000D02*
X168200000Y-61600000D01*
X168500000Y-62500000D02*
X168200000Y-62500000D01*
G04 #@! TO.C,U10*
X132500000Y-67500000D02*
X132500000Y-62500000D01*
X132200000Y-67500000D02*
X132500000Y-67500000D01*
X132200000Y-68400000D02*
X132200000Y-67500000D01*
X131000000Y-68400000D02*
X132200000Y-68400000D01*
X131000000Y-67500000D02*
X131000000Y-68400000D01*
X129000000Y-67500000D02*
X131000000Y-67500000D01*
X129000000Y-68400000D02*
X129000000Y-67500000D01*
X127800000Y-68400000D02*
X129000000Y-68400000D01*
X127800000Y-67500000D02*
X127800000Y-68400000D01*
X127500000Y-67500000D02*
X127800000Y-67500000D01*
X127500000Y-62500000D02*
X127500000Y-67500000D01*
X127800000Y-62500000D02*
X127500000Y-62500000D01*
X127800000Y-61600000D02*
X127800000Y-62500000D01*
X129000000Y-61600000D02*
X127800000Y-61600000D01*
X129000000Y-62500000D02*
X129000000Y-61600000D01*
X131000000Y-62500000D02*
X129000000Y-62500000D01*
X131000000Y-61600000D02*
X131000000Y-62500000D01*
X132200000Y-61600000D02*
X131000000Y-61600000D01*
X132200000Y-62500000D02*
X132200000Y-61600000D01*
X132500000Y-62500000D02*
X132200000Y-62500000D01*
G04 #@! TO.C,U4*
X105500000Y-62500000D02*
X105200000Y-62500000D01*
X105200000Y-62500000D02*
X105200000Y-61600000D01*
X105200000Y-61600000D02*
X104000000Y-61600000D01*
X104000000Y-61600000D02*
X104000000Y-62500000D01*
X104000000Y-62500000D02*
X102000000Y-62500000D01*
X102000000Y-62500000D02*
X102000000Y-61600000D01*
X102000000Y-61600000D02*
X100800000Y-61600000D01*
X100800000Y-61600000D02*
X100800000Y-62500000D01*
X100800000Y-62500000D02*
X100500000Y-62500000D01*
X100500000Y-62500000D02*
X100500000Y-67500000D01*
X100500000Y-67500000D02*
X100800000Y-67500000D01*
X100800000Y-67500000D02*
X100800000Y-68400000D01*
X100800000Y-68400000D02*
X102000000Y-68400000D01*
X102000000Y-68400000D02*
X102000000Y-67500000D01*
X102000000Y-67500000D02*
X104000000Y-67500000D01*
X104000000Y-67500000D02*
X104000000Y-68400000D01*
X104000000Y-68400000D02*
X105200000Y-68400000D01*
X105200000Y-68400000D02*
X105200000Y-67500000D01*
X105200000Y-67500000D02*
X105500000Y-67500000D01*
X105500000Y-67500000D02*
X105500000Y-62500000D01*
G04 #@! TO.C,U2*
X96500000Y-67500000D02*
X96500000Y-62500000D01*
X96200000Y-67500000D02*
X96500000Y-67500000D01*
X96200000Y-68400000D02*
X96200000Y-67500000D01*
X95000000Y-68400000D02*
X96200000Y-68400000D01*
X95000000Y-67500000D02*
X95000000Y-68400000D01*
X93000000Y-67500000D02*
X95000000Y-67500000D01*
X93000000Y-68400000D02*
X93000000Y-67500000D01*
X91800000Y-68400000D02*
X93000000Y-68400000D01*
X91800000Y-67500000D02*
X91800000Y-68400000D01*
X91500000Y-67500000D02*
X91800000Y-67500000D01*
X91500000Y-62500000D02*
X91500000Y-67500000D01*
X91800000Y-62500000D02*
X91500000Y-62500000D01*
X91800000Y-61600000D02*
X91800000Y-62500000D01*
X93000000Y-61600000D02*
X91800000Y-61600000D01*
X93000000Y-62500000D02*
X93000000Y-61600000D01*
X95000000Y-62500000D02*
X93000000Y-62500000D01*
X95000000Y-61600000D02*
X95000000Y-62500000D01*
X96200000Y-61600000D02*
X95000000Y-61600000D01*
X96200000Y-62500000D02*
X96200000Y-61600000D01*
X96500000Y-62500000D02*
X96200000Y-62500000D01*
G04 #@! TO.C,U6*
X114500000Y-62500000D02*
X114200000Y-62500000D01*
X114200000Y-62500000D02*
X114200000Y-61600000D01*
X114200000Y-61600000D02*
X113000000Y-61600000D01*
X113000000Y-61600000D02*
X113000000Y-62500000D01*
X113000000Y-62500000D02*
X111000000Y-62500000D01*
X111000000Y-62500000D02*
X111000000Y-61600000D01*
X111000000Y-61600000D02*
X109800000Y-61600000D01*
X109800000Y-61600000D02*
X109800000Y-62500000D01*
X109800000Y-62500000D02*
X109500000Y-62500000D01*
X109500000Y-62500000D02*
X109500000Y-67500000D01*
X109500000Y-67500000D02*
X109800000Y-67500000D01*
X109800000Y-67500000D02*
X109800000Y-68400000D01*
X109800000Y-68400000D02*
X111000000Y-68400000D01*
X111000000Y-68400000D02*
X111000000Y-67500000D01*
X111000000Y-67500000D02*
X113000000Y-67500000D01*
X113000000Y-67500000D02*
X113000000Y-68400000D01*
X113000000Y-68400000D02*
X114200000Y-68400000D01*
X114200000Y-68400000D02*
X114200000Y-67500000D01*
X114200000Y-67500000D02*
X114500000Y-67500000D01*
X114500000Y-67500000D02*
X114500000Y-62500000D01*
G04 #@! TO.C,U14*
X150500000Y-62500000D02*
X150200000Y-62500000D01*
X150200000Y-62500000D02*
X150200000Y-61600000D01*
X150200000Y-61600000D02*
X149000000Y-61600000D01*
X149000000Y-61600000D02*
X149000000Y-62500000D01*
X149000000Y-62500000D02*
X147000000Y-62500000D01*
X147000000Y-62500000D02*
X147000000Y-61600000D01*
X147000000Y-61600000D02*
X145800000Y-61600000D01*
X145800000Y-61600000D02*
X145800000Y-62500000D01*
X145800000Y-62500000D02*
X145500000Y-62500000D01*
X145500000Y-62500000D02*
X145500000Y-67500000D01*
X145500000Y-67500000D02*
X145800000Y-67500000D01*
X145800000Y-67500000D02*
X145800000Y-68400000D01*
X145800000Y-68400000D02*
X147000000Y-68400000D01*
X147000000Y-68400000D02*
X147000000Y-67500000D01*
X147000000Y-67500000D02*
X149000000Y-67500000D01*
X149000000Y-67500000D02*
X149000000Y-68400000D01*
X149000000Y-68400000D02*
X150200000Y-68400000D01*
X150200000Y-68400000D02*
X150200000Y-67500000D01*
X150200000Y-67500000D02*
X150500000Y-67500000D01*
X150500000Y-67500000D02*
X150500000Y-62500000D01*
G04 #@! TO.C,U12*
X141500000Y-62500000D02*
X141200000Y-62500000D01*
X141200000Y-62500000D02*
X141200000Y-61600000D01*
X141200000Y-61600000D02*
X140000000Y-61600000D01*
X140000000Y-61600000D02*
X140000000Y-62500000D01*
X140000000Y-62500000D02*
X138000000Y-62500000D01*
X138000000Y-62500000D02*
X138000000Y-61600000D01*
X138000000Y-61600000D02*
X136800000Y-61600000D01*
X136800000Y-61600000D02*
X136800000Y-62500000D01*
X136800000Y-62500000D02*
X136500000Y-62500000D01*
X136500000Y-62500000D02*
X136500000Y-67500000D01*
X136500000Y-67500000D02*
X136800000Y-67500000D01*
X136800000Y-67500000D02*
X136800000Y-68400000D01*
X136800000Y-68400000D02*
X138000000Y-68400000D01*
X138000000Y-68400000D02*
X138000000Y-67500000D01*
X138000000Y-67500000D02*
X140000000Y-67500000D01*
X140000000Y-67500000D02*
X140000000Y-68400000D01*
X140000000Y-68400000D02*
X141200000Y-68400000D01*
X141200000Y-68400000D02*
X141200000Y-67500000D01*
X141200000Y-67500000D02*
X141500000Y-67500000D01*
X141500000Y-67500000D02*
X141500000Y-62500000D01*
G04 #@! TO.C,U1*
X96500000Y-52500000D02*
X96200000Y-52500000D01*
X96200000Y-52500000D02*
X96200000Y-51600000D01*
X96200000Y-51600000D02*
X95000000Y-51600000D01*
X95000000Y-51600000D02*
X95000000Y-52500000D01*
X95000000Y-52500000D02*
X93000000Y-52500000D01*
X93000000Y-52500000D02*
X93000000Y-51600000D01*
X93000000Y-51600000D02*
X91800000Y-51600000D01*
X91800000Y-51600000D02*
X91800000Y-52500000D01*
X91800000Y-52500000D02*
X91500000Y-52500000D01*
X91500000Y-52500000D02*
X91500000Y-57500000D01*
X91500000Y-57500000D02*
X91800000Y-57500000D01*
X91800000Y-57500000D02*
X91800000Y-58400000D01*
X91800000Y-58400000D02*
X93000000Y-58400000D01*
X93000000Y-58400000D02*
X93000000Y-57500000D01*
X93000000Y-57500000D02*
X95000000Y-57500000D01*
X95000000Y-57500000D02*
X95000000Y-58400000D01*
X95000000Y-58400000D02*
X96200000Y-58400000D01*
X96200000Y-58400000D02*
X96200000Y-57500000D01*
X96200000Y-57500000D02*
X96500000Y-57500000D01*
X96500000Y-57500000D02*
X96500000Y-52500000D01*
G04 #@! TO.C,U3*
X105500000Y-57500000D02*
X105500000Y-52500000D01*
X105200000Y-57500000D02*
X105500000Y-57500000D01*
X105200000Y-58400000D02*
X105200000Y-57500000D01*
X104000000Y-58400000D02*
X105200000Y-58400000D01*
X104000000Y-57500000D02*
X104000000Y-58400000D01*
X102000000Y-57500000D02*
X104000000Y-57500000D01*
X102000000Y-58400000D02*
X102000000Y-57500000D01*
X100800000Y-58400000D02*
X102000000Y-58400000D01*
X100800000Y-57500000D02*
X100800000Y-58400000D01*
X100500000Y-57500000D02*
X100800000Y-57500000D01*
X100500000Y-52500000D02*
X100500000Y-57500000D01*
X100800000Y-52500000D02*
X100500000Y-52500000D01*
X100800000Y-51600000D02*
X100800000Y-52500000D01*
X102000000Y-51600000D02*
X100800000Y-51600000D01*
X102000000Y-52500000D02*
X102000000Y-51600000D01*
X104000000Y-52500000D02*
X102000000Y-52500000D01*
X104000000Y-51600000D02*
X104000000Y-52500000D01*
X105200000Y-51600000D02*
X104000000Y-51600000D01*
X105200000Y-52500000D02*
X105200000Y-51600000D01*
X105500000Y-52500000D02*
X105200000Y-52500000D01*
G04 #@! TO.C,U5*
X114500000Y-57500000D02*
X114500000Y-52500000D01*
X114200000Y-57500000D02*
X114500000Y-57500000D01*
X114200000Y-58400000D02*
X114200000Y-57500000D01*
X113000000Y-58400000D02*
X114200000Y-58400000D01*
X113000000Y-57500000D02*
X113000000Y-58400000D01*
X111000000Y-57500000D02*
X113000000Y-57500000D01*
X111000000Y-58400000D02*
X111000000Y-57500000D01*
X109800000Y-58400000D02*
X111000000Y-58400000D01*
X109800000Y-57500000D02*
X109800000Y-58400000D01*
X109500000Y-57500000D02*
X109800000Y-57500000D01*
X109500000Y-52500000D02*
X109500000Y-57500000D01*
X109800000Y-52500000D02*
X109500000Y-52500000D01*
X109800000Y-51600000D02*
X109800000Y-52500000D01*
X111000000Y-51600000D02*
X109800000Y-51600000D01*
X111000000Y-52500000D02*
X111000000Y-51600000D01*
X113000000Y-52500000D02*
X111000000Y-52500000D01*
X113000000Y-51600000D02*
X113000000Y-52500000D01*
X114200000Y-51600000D02*
X113000000Y-51600000D01*
X114200000Y-52500000D02*
X114200000Y-51600000D01*
X114500000Y-52500000D02*
X114200000Y-52500000D01*
G04 #@! TO.C,U7*
X123500000Y-52500000D02*
X123200000Y-52500000D01*
X123200000Y-52500000D02*
X123200000Y-51600000D01*
X123200000Y-51600000D02*
X122000000Y-51600000D01*
X122000000Y-51600000D02*
X122000000Y-52500000D01*
X122000000Y-52500000D02*
X120000000Y-52500000D01*
X120000000Y-52500000D02*
X120000000Y-51600000D01*
X120000000Y-51600000D02*
X118800000Y-51600000D01*
X118800000Y-51600000D02*
X118800000Y-52500000D01*
X118800000Y-52500000D02*
X118500000Y-52500000D01*
X118500000Y-52500000D02*
X118500000Y-57500000D01*
X118500000Y-57500000D02*
X118800000Y-57500000D01*
X118800000Y-57500000D02*
X118800000Y-58400000D01*
X118800000Y-58400000D02*
X120000000Y-58400000D01*
X120000000Y-58400000D02*
X120000000Y-57500000D01*
X120000000Y-57500000D02*
X122000000Y-57500000D01*
X122000000Y-57500000D02*
X122000000Y-58400000D01*
X122000000Y-58400000D02*
X123200000Y-58400000D01*
X123200000Y-58400000D02*
X123200000Y-57500000D01*
X123200000Y-57500000D02*
X123500000Y-57500000D01*
X123500000Y-57500000D02*
X123500000Y-52500000D01*
G04 #@! TO.C,U9*
X132500000Y-52500000D02*
X132200000Y-52500000D01*
X132200000Y-52500000D02*
X132200000Y-51600000D01*
X132200000Y-51600000D02*
X131000000Y-51600000D01*
X131000000Y-51600000D02*
X131000000Y-52500000D01*
X131000000Y-52500000D02*
X129000000Y-52500000D01*
X129000000Y-52500000D02*
X129000000Y-51600000D01*
X129000000Y-51600000D02*
X127800000Y-51600000D01*
X127800000Y-51600000D02*
X127800000Y-52500000D01*
X127800000Y-52500000D02*
X127500000Y-52500000D01*
X127500000Y-52500000D02*
X127500000Y-57500000D01*
X127500000Y-57500000D02*
X127800000Y-57500000D01*
X127800000Y-57500000D02*
X127800000Y-58400000D01*
X127800000Y-58400000D02*
X129000000Y-58400000D01*
X129000000Y-58400000D02*
X129000000Y-57500000D01*
X129000000Y-57500000D02*
X131000000Y-57500000D01*
X131000000Y-57500000D02*
X131000000Y-58400000D01*
X131000000Y-58400000D02*
X132200000Y-58400000D01*
X132200000Y-58400000D02*
X132200000Y-57500000D01*
X132200000Y-57500000D02*
X132500000Y-57500000D01*
X132500000Y-57500000D02*
X132500000Y-52500000D01*
G04 #@! TO.C,U11*
X141500000Y-57500000D02*
X141500000Y-52500000D01*
X141200000Y-57500000D02*
X141500000Y-57500000D01*
X141200000Y-58400000D02*
X141200000Y-57500000D01*
X140000000Y-58400000D02*
X141200000Y-58400000D01*
X140000000Y-57500000D02*
X140000000Y-58400000D01*
X138000000Y-57500000D02*
X140000000Y-57500000D01*
X138000000Y-58400000D02*
X138000000Y-57500000D01*
X136800000Y-58400000D02*
X138000000Y-58400000D01*
X136800000Y-57500000D02*
X136800000Y-58400000D01*
X136500000Y-57500000D02*
X136800000Y-57500000D01*
X136500000Y-52500000D02*
X136500000Y-57500000D01*
X136800000Y-52500000D02*
X136500000Y-52500000D01*
X136800000Y-51600000D02*
X136800000Y-52500000D01*
X138000000Y-51600000D02*
X136800000Y-51600000D01*
X138000000Y-52500000D02*
X138000000Y-51600000D01*
X140000000Y-52500000D02*
X138000000Y-52500000D01*
X140000000Y-51600000D02*
X140000000Y-52500000D01*
X141200000Y-51600000D02*
X140000000Y-51600000D01*
X141200000Y-52500000D02*
X141200000Y-51600000D01*
X141500000Y-52500000D02*
X141200000Y-52500000D01*
G04 #@! TO.C,U13*
X150500000Y-57500000D02*
X150500000Y-52500000D01*
X150200000Y-57500000D02*
X150500000Y-57500000D01*
X150200000Y-58400000D02*
X150200000Y-57500000D01*
X149000000Y-58400000D02*
X150200000Y-58400000D01*
X149000000Y-57500000D02*
X149000000Y-58400000D01*
X147000000Y-57500000D02*
X149000000Y-57500000D01*
X147000000Y-58400000D02*
X147000000Y-57500000D01*
X145800000Y-58400000D02*
X147000000Y-58400000D01*
X145800000Y-57500000D02*
X145800000Y-58400000D01*
X145500000Y-57500000D02*
X145800000Y-57500000D01*
X145500000Y-52500000D02*
X145500000Y-57500000D01*
X145800000Y-52500000D02*
X145500000Y-52500000D01*
X145800000Y-51600000D02*
X145800000Y-52500000D01*
X147000000Y-51600000D02*
X145800000Y-51600000D01*
X147000000Y-52500000D02*
X147000000Y-51600000D01*
X149000000Y-52500000D02*
X147000000Y-52500000D01*
X149000000Y-51600000D02*
X149000000Y-52500000D01*
X150200000Y-51600000D02*
X149000000Y-51600000D01*
X150200000Y-52500000D02*
X150200000Y-51600000D01*
X150500000Y-52500000D02*
X150200000Y-52500000D01*
G04 #@! TO.C,U15*
X159500000Y-52500000D02*
X159200000Y-52500000D01*
X159200000Y-52500000D02*
X159200000Y-51600000D01*
X159200000Y-51600000D02*
X158000000Y-51600000D01*
X158000000Y-51600000D02*
X158000000Y-52500000D01*
X158000000Y-52500000D02*
X156000000Y-52500000D01*
X156000000Y-52500000D02*
X156000000Y-51600000D01*
X156000000Y-51600000D02*
X154800000Y-51600000D01*
X154800000Y-51600000D02*
X154800000Y-52500000D01*
X154800000Y-52500000D02*
X154500000Y-52500000D01*
X154500000Y-52500000D02*
X154500000Y-57500000D01*
X154500000Y-57500000D02*
X154800000Y-57500000D01*
X154800000Y-57500000D02*
X154800000Y-58400000D01*
X154800000Y-58400000D02*
X156000000Y-58400000D01*
X156000000Y-58400000D02*
X156000000Y-57500000D01*
X156000000Y-57500000D02*
X158000000Y-57500000D01*
X158000000Y-57500000D02*
X158000000Y-58400000D01*
X158000000Y-58400000D02*
X159200000Y-58400000D01*
X159200000Y-58400000D02*
X159200000Y-57500000D01*
X159200000Y-57500000D02*
X159500000Y-57500000D01*
X159500000Y-57500000D02*
X159500000Y-52500000D01*
G04 #@! TO.C,U17*
X168500000Y-52500000D02*
X168200000Y-52500000D01*
X168200000Y-52500000D02*
X168200000Y-51600000D01*
X168200000Y-51600000D02*
X167000000Y-51600000D01*
X167000000Y-51600000D02*
X167000000Y-52500000D01*
X167000000Y-52500000D02*
X165000000Y-52500000D01*
X165000000Y-52500000D02*
X165000000Y-51600000D01*
X165000000Y-51600000D02*
X163800000Y-51600000D01*
X163800000Y-51600000D02*
X163800000Y-52500000D01*
X163800000Y-52500000D02*
X163500000Y-52500000D01*
X163500000Y-52500000D02*
X163500000Y-57500000D01*
X163500000Y-57500000D02*
X163800000Y-57500000D01*
X163800000Y-57500000D02*
X163800000Y-58400000D01*
X163800000Y-58400000D02*
X165000000Y-58400000D01*
X165000000Y-58400000D02*
X165000000Y-57500000D01*
X165000000Y-57500000D02*
X167000000Y-57500000D01*
X167000000Y-57500000D02*
X167000000Y-58400000D01*
X167000000Y-58400000D02*
X168200000Y-58400000D01*
X168200000Y-58400000D02*
X168200000Y-57500000D01*
X168200000Y-57500000D02*
X168500000Y-57500000D01*
X168500000Y-57500000D02*
X168500000Y-52500000D01*
G04 #@! TO.C,U19*
X177500000Y-57500000D02*
X177500000Y-52500000D01*
X177200000Y-57500000D02*
X177500000Y-57500000D01*
X177200000Y-58400000D02*
X177200000Y-57500000D01*
X176000000Y-58400000D02*
X177200000Y-58400000D01*
X176000000Y-57500000D02*
X176000000Y-58400000D01*
X174000000Y-57500000D02*
X176000000Y-57500000D01*
X174000000Y-58400000D02*
X174000000Y-57500000D01*
X172800000Y-58400000D02*
X174000000Y-58400000D01*
X172800000Y-57500000D02*
X172800000Y-58400000D01*
X172500000Y-57500000D02*
X172800000Y-57500000D01*
X172500000Y-52500000D02*
X172500000Y-57500000D01*
X172800000Y-52500000D02*
X172500000Y-52500000D01*
X172800000Y-51600000D02*
X172800000Y-52500000D01*
X174000000Y-51600000D02*
X172800000Y-51600000D01*
X174000000Y-52500000D02*
X174000000Y-51600000D01*
X176000000Y-52500000D02*
X174000000Y-52500000D01*
X176000000Y-51600000D02*
X176000000Y-52500000D01*
X177200000Y-51600000D02*
X176000000Y-51600000D01*
X177200000Y-52500000D02*
X177200000Y-51600000D01*
X177500000Y-52500000D02*
X177200000Y-52500000D01*
G04 #@! TO.C,U8*
D11*
X120452380Y-64238095D02*
X121261904Y-64238095D01*
X121357142Y-64285714D01*
X121404761Y-64333333D01*
X121452380Y-64428571D01*
X121452380Y-64619047D01*
X121404761Y-64714285D01*
X121357142Y-64761904D01*
X121261904Y-64809523D01*
X120452380Y-64809523D01*
X120880952Y-65428571D02*
X120833333Y-65333333D01*
X120785714Y-65285714D01*
X120690476Y-65238095D01*
X120642857Y-65238095D01*
X120547619Y-65285714D01*
X120500000Y-65333333D01*
X120452380Y-65428571D01*
X120452380Y-65619047D01*
X120500000Y-65714285D01*
X120547619Y-65761904D01*
X120642857Y-65809523D01*
X120690476Y-65809523D01*
X120785714Y-65761904D01*
X120833333Y-65714285D01*
X120880952Y-65619047D01*
X120880952Y-65428571D01*
X120928571Y-65333333D01*
X120976190Y-65285714D01*
X121071428Y-65238095D01*
X121261904Y-65238095D01*
X121357142Y-65285714D01*
X121404761Y-65333333D01*
X121452380Y-65428571D01*
X121452380Y-65619047D01*
X121404761Y-65714285D01*
X121357142Y-65761904D01*
X121261904Y-65809523D01*
X121071428Y-65809523D01*
X120976190Y-65761904D01*
X120928571Y-65714285D01*
X120880952Y-65619047D01*
G04 #@! TO.C,U16*
X156452380Y-63761904D02*
X157261904Y-63761904D01*
X157357142Y-63809523D01*
X157404761Y-63857142D01*
X157452380Y-63952380D01*
X157452380Y-64142857D01*
X157404761Y-64238095D01*
X157357142Y-64285714D01*
X157261904Y-64333333D01*
X156452380Y-64333333D01*
X157452380Y-65333333D02*
X157452380Y-64761904D01*
X157452380Y-65047619D02*
X156452380Y-65047619D01*
X156595238Y-64952380D01*
X156690476Y-64857142D01*
X156738095Y-64761904D01*
X156452380Y-66190476D02*
X156452380Y-66000000D01*
X156500000Y-65904761D01*
X156547619Y-65857142D01*
X156690476Y-65761904D01*
X156880952Y-65714285D01*
X157261904Y-65714285D01*
X157357142Y-65761904D01*
X157404761Y-65809523D01*
X157452380Y-65904761D01*
X157452380Y-66095238D01*
X157404761Y-66190476D01*
X157357142Y-66238095D01*
X157261904Y-66285714D01*
X157023809Y-66285714D01*
X156928571Y-66238095D01*
X156880952Y-66190476D01*
X156833333Y-66095238D01*
X156833333Y-65904761D01*
X156880952Y-65809523D01*
X156928571Y-65761904D01*
X157023809Y-65714285D01*
G04 #@! TO.C,U20*
X174452380Y-63761904D02*
X175261904Y-63761904D01*
X175357142Y-63809523D01*
X175404761Y-63857142D01*
X175452380Y-63952380D01*
X175452380Y-64142857D01*
X175404761Y-64238095D01*
X175357142Y-64285714D01*
X175261904Y-64333333D01*
X174452380Y-64333333D01*
X174547619Y-64761904D02*
X174500000Y-64809523D01*
X174452380Y-64904761D01*
X174452380Y-65142857D01*
X174500000Y-65238095D01*
X174547619Y-65285714D01*
X174642857Y-65333333D01*
X174738095Y-65333333D01*
X174880952Y-65285714D01*
X175452380Y-64714285D01*
X175452380Y-65333333D01*
X174452380Y-65952380D02*
X174452380Y-66047619D01*
X174500000Y-66142857D01*
X174547619Y-66190476D01*
X174642857Y-66238095D01*
X174833333Y-66285714D01*
X175071428Y-66285714D01*
X175261904Y-66238095D01*
X175357142Y-66190476D01*
X175404761Y-66142857D01*
X175452380Y-66047619D01*
X175452380Y-65952380D01*
X175404761Y-65857142D01*
X175357142Y-65809523D01*
X175261904Y-65761904D01*
X175071428Y-65714285D01*
X174833333Y-65714285D01*
X174642857Y-65761904D01*
X174547619Y-65809523D01*
X174500000Y-65857142D01*
X174452380Y-65952380D01*
G04 #@! TO.C,U18*
X165452380Y-63761904D02*
X166261904Y-63761904D01*
X166357142Y-63809523D01*
X166404761Y-63857142D01*
X166452380Y-63952380D01*
X166452380Y-64142857D01*
X166404761Y-64238095D01*
X166357142Y-64285714D01*
X166261904Y-64333333D01*
X165452380Y-64333333D01*
X166452380Y-65333333D02*
X166452380Y-64761904D01*
X166452380Y-65047619D02*
X165452380Y-65047619D01*
X165595238Y-64952380D01*
X165690476Y-64857142D01*
X165738095Y-64761904D01*
X165880952Y-65904761D02*
X165833333Y-65809523D01*
X165785714Y-65761904D01*
X165690476Y-65714285D01*
X165642857Y-65714285D01*
X165547619Y-65761904D01*
X165500000Y-65809523D01*
X165452380Y-65904761D01*
X165452380Y-66095238D01*
X165500000Y-66190476D01*
X165547619Y-66238095D01*
X165642857Y-66285714D01*
X165690476Y-66285714D01*
X165785714Y-66238095D01*
X165833333Y-66190476D01*
X165880952Y-66095238D01*
X165880952Y-65904761D01*
X165928571Y-65809523D01*
X165976190Y-65761904D01*
X166071428Y-65714285D01*
X166261904Y-65714285D01*
X166357142Y-65761904D01*
X166404761Y-65809523D01*
X166452380Y-65904761D01*
X166452380Y-66095238D01*
X166404761Y-66190476D01*
X166357142Y-66238095D01*
X166261904Y-66285714D01*
X166071428Y-66285714D01*
X165976190Y-66238095D01*
X165928571Y-66190476D01*
X165880952Y-66095238D01*
G04 #@! TO.C,U10*
X129452380Y-63761904D02*
X130261904Y-63761904D01*
X130357142Y-63809523D01*
X130404761Y-63857142D01*
X130452380Y-63952380D01*
X130452380Y-64142857D01*
X130404761Y-64238095D01*
X130357142Y-64285714D01*
X130261904Y-64333333D01*
X129452380Y-64333333D01*
X130452380Y-65333333D02*
X130452380Y-64761904D01*
X130452380Y-65047619D02*
X129452380Y-65047619D01*
X129595238Y-64952380D01*
X129690476Y-64857142D01*
X129738095Y-64761904D01*
X129452380Y-65952380D02*
X129452380Y-66047619D01*
X129500000Y-66142857D01*
X129547619Y-66190476D01*
X129642857Y-66238095D01*
X129833333Y-66285714D01*
X130071428Y-66285714D01*
X130261904Y-66238095D01*
X130357142Y-66190476D01*
X130404761Y-66142857D01*
X130452380Y-66047619D01*
X130452380Y-65952380D01*
X130404761Y-65857142D01*
X130357142Y-65809523D01*
X130261904Y-65761904D01*
X130071428Y-65714285D01*
X129833333Y-65714285D01*
X129642857Y-65761904D01*
X129547619Y-65809523D01*
X129500000Y-65857142D01*
X129452380Y-65952380D01*
G04 #@! TO.C,U4*
X102452380Y-64238095D02*
X103261904Y-64238095D01*
X103357142Y-64285714D01*
X103404761Y-64333333D01*
X103452380Y-64428571D01*
X103452380Y-64619047D01*
X103404761Y-64714285D01*
X103357142Y-64761904D01*
X103261904Y-64809523D01*
X102452380Y-64809523D01*
X102785714Y-65714285D02*
X103452380Y-65714285D01*
X102404761Y-65476190D02*
X103119047Y-65238095D01*
X103119047Y-65857142D01*
G04 #@! TO.C,U2*
X93452380Y-64238095D02*
X94261904Y-64238095D01*
X94357142Y-64285714D01*
X94404761Y-64333333D01*
X94452380Y-64428571D01*
X94452380Y-64619047D01*
X94404761Y-64714285D01*
X94357142Y-64761904D01*
X94261904Y-64809523D01*
X93452380Y-64809523D01*
X93547619Y-65238095D02*
X93500000Y-65285714D01*
X93452380Y-65380952D01*
X93452380Y-65619047D01*
X93500000Y-65714285D01*
X93547619Y-65761904D01*
X93642857Y-65809523D01*
X93738095Y-65809523D01*
X93880952Y-65761904D01*
X94452380Y-65190476D01*
X94452380Y-65809523D01*
G04 #@! TO.C,U6*
X111452380Y-64238095D02*
X112261904Y-64238095D01*
X112357142Y-64285714D01*
X112404761Y-64333333D01*
X112452380Y-64428571D01*
X112452380Y-64619047D01*
X112404761Y-64714285D01*
X112357142Y-64761904D01*
X112261904Y-64809523D01*
X111452380Y-64809523D01*
X111452380Y-65714285D02*
X111452380Y-65523809D01*
X111500000Y-65428571D01*
X111547619Y-65380952D01*
X111690476Y-65285714D01*
X111880952Y-65238095D01*
X112261904Y-65238095D01*
X112357142Y-65285714D01*
X112404761Y-65333333D01*
X112452380Y-65428571D01*
X112452380Y-65619047D01*
X112404761Y-65714285D01*
X112357142Y-65761904D01*
X112261904Y-65809523D01*
X112023809Y-65809523D01*
X111928571Y-65761904D01*
X111880952Y-65714285D01*
X111833333Y-65619047D01*
X111833333Y-65428571D01*
X111880952Y-65333333D01*
X111928571Y-65285714D01*
X112023809Y-65238095D01*
G04 #@! TO.C,U14*
X147452380Y-63761904D02*
X148261904Y-63761904D01*
X148357142Y-63809523D01*
X148404761Y-63857142D01*
X148452380Y-63952380D01*
X148452380Y-64142857D01*
X148404761Y-64238095D01*
X148357142Y-64285714D01*
X148261904Y-64333333D01*
X147452380Y-64333333D01*
X148452380Y-65333333D02*
X148452380Y-64761904D01*
X148452380Y-65047619D02*
X147452380Y-65047619D01*
X147595238Y-64952380D01*
X147690476Y-64857142D01*
X147738095Y-64761904D01*
X147785714Y-66190476D02*
X148452380Y-66190476D01*
X147404761Y-65952380D02*
X148119047Y-65714285D01*
X148119047Y-66333333D01*
G04 #@! TO.C,U12*
X138452380Y-63761904D02*
X139261904Y-63761904D01*
X139357142Y-63809523D01*
X139404761Y-63857142D01*
X139452380Y-63952380D01*
X139452380Y-64142857D01*
X139404761Y-64238095D01*
X139357142Y-64285714D01*
X139261904Y-64333333D01*
X138452380Y-64333333D01*
X139452380Y-65333333D02*
X139452380Y-64761904D01*
X139452380Y-65047619D02*
X138452380Y-65047619D01*
X138595238Y-64952380D01*
X138690476Y-64857142D01*
X138738095Y-64761904D01*
X138547619Y-65714285D02*
X138500000Y-65761904D01*
X138452380Y-65857142D01*
X138452380Y-66095238D01*
X138500000Y-66190476D01*
X138547619Y-66238095D01*
X138642857Y-66285714D01*
X138738095Y-66285714D01*
X138880952Y-66238095D01*
X139452380Y-65666666D01*
X139452380Y-66285714D01*
G04 #@! TO.C,C1*
X98857142Y-62333333D02*
X98904761Y-62285714D01*
X98952380Y-62142857D01*
X98952380Y-62047619D01*
X98904761Y-61904761D01*
X98809523Y-61809523D01*
X98714285Y-61761904D01*
X98523809Y-61714285D01*
X98380952Y-61714285D01*
X98190476Y-61761904D01*
X98095238Y-61809523D01*
X98000000Y-61904761D01*
X97952380Y-62047619D01*
X97952380Y-62142857D01*
X98000000Y-62285714D01*
X98047619Y-62333333D01*
X98952380Y-63285714D02*
X98952380Y-62714285D01*
X98952380Y-63000000D02*
X97952380Y-63000000D01*
X98095238Y-62904761D01*
X98190476Y-62809523D01*
X98238095Y-62714285D01*
G04 #@! TO.C,C2*
X107857142Y-62333333D02*
X107904761Y-62285714D01*
X107952380Y-62142857D01*
X107952380Y-62047619D01*
X107904761Y-61904761D01*
X107809523Y-61809523D01*
X107714285Y-61761904D01*
X107523809Y-61714285D01*
X107380952Y-61714285D01*
X107190476Y-61761904D01*
X107095238Y-61809523D01*
X107000000Y-61904761D01*
X106952380Y-62047619D01*
X106952380Y-62142857D01*
X107000000Y-62285714D01*
X107047619Y-62333333D01*
X107047619Y-62714285D02*
X107000000Y-62761904D01*
X106952380Y-62857142D01*
X106952380Y-63095238D01*
X107000000Y-63190476D01*
X107047619Y-63238095D01*
X107142857Y-63285714D01*
X107238095Y-63285714D01*
X107380952Y-63238095D01*
X107952380Y-62666666D01*
X107952380Y-63285714D01*
G04 #@! TO.C,C3*
X116857142Y-62333333D02*
X116904761Y-62285714D01*
X116952380Y-62142857D01*
X116952380Y-62047619D01*
X116904761Y-61904761D01*
X116809523Y-61809523D01*
X116714285Y-61761904D01*
X116523809Y-61714285D01*
X116380952Y-61714285D01*
X116190476Y-61761904D01*
X116095238Y-61809523D01*
X116000000Y-61904761D01*
X115952380Y-62047619D01*
X115952380Y-62142857D01*
X116000000Y-62285714D01*
X116047619Y-62333333D01*
X115952380Y-62666666D02*
X115952380Y-63285714D01*
X116333333Y-62952380D01*
X116333333Y-63095238D01*
X116380952Y-63190476D01*
X116428571Y-63238095D01*
X116523809Y-63285714D01*
X116761904Y-63285714D01*
X116857142Y-63238095D01*
X116904761Y-63190476D01*
X116952380Y-63095238D01*
X116952380Y-62809523D01*
X116904761Y-62714285D01*
X116857142Y-62666666D01*
G04 #@! TO.C,C4*
X125857142Y-62333333D02*
X125904761Y-62285714D01*
X125952380Y-62142857D01*
X125952380Y-62047619D01*
X125904761Y-61904761D01*
X125809523Y-61809523D01*
X125714285Y-61761904D01*
X125523809Y-61714285D01*
X125380952Y-61714285D01*
X125190476Y-61761904D01*
X125095238Y-61809523D01*
X125000000Y-61904761D01*
X124952380Y-62047619D01*
X124952380Y-62142857D01*
X125000000Y-62285714D01*
X125047619Y-62333333D01*
X125285714Y-63190476D02*
X125952380Y-63190476D01*
X124904761Y-62952380D02*
X125619047Y-62714285D01*
X125619047Y-63333333D01*
G04 #@! TO.C,C5*
X134857142Y-62333333D02*
X134904761Y-62285714D01*
X134952380Y-62142857D01*
X134952380Y-62047619D01*
X134904761Y-61904761D01*
X134809523Y-61809523D01*
X134714285Y-61761904D01*
X134523809Y-61714285D01*
X134380952Y-61714285D01*
X134190476Y-61761904D01*
X134095238Y-61809523D01*
X134000000Y-61904761D01*
X133952380Y-62047619D01*
X133952380Y-62142857D01*
X134000000Y-62285714D01*
X134047619Y-62333333D01*
X133952380Y-63238095D02*
X133952380Y-62761904D01*
X134428571Y-62714285D01*
X134380952Y-62761904D01*
X134333333Y-62857142D01*
X134333333Y-63095238D01*
X134380952Y-63190476D01*
X134428571Y-63238095D01*
X134523809Y-63285714D01*
X134761904Y-63285714D01*
X134857142Y-63238095D01*
X134904761Y-63190476D01*
X134952380Y-63095238D01*
X134952380Y-62857142D01*
X134904761Y-62761904D01*
X134857142Y-62714285D01*
G04 #@! TO.C,C6*
X143857142Y-62333333D02*
X143904761Y-62285714D01*
X143952380Y-62142857D01*
X143952380Y-62047619D01*
X143904761Y-61904761D01*
X143809523Y-61809523D01*
X143714285Y-61761904D01*
X143523809Y-61714285D01*
X143380952Y-61714285D01*
X143190476Y-61761904D01*
X143095238Y-61809523D01*
X143000000Y-61904761D01*
X142952380Y-62047619D01*
X142952380Y-62142857D01*
X143000000Y-62285714D01*
X143047619Y-62333333D01*
X142952380Y-63190476D02*
X142952380Y-63000000D01*
X143000000Y-62904761D01*
X143047619Y-62857142D01*
X143190476Y-62761904D01*
X143380952Y-62714285D01*
X143761904Y-62714285D01*
X143857142Y-62761904D01*
X143904761Y-62809523D01*
X143952380Y-62904761D01*
X143952380Y-63095238D01*
X143904761Y-63190476D01*
X143857142Y-63238095D01*
X143761904Y-63285714D01*
X143523809Y-63285714D01*
X143428571Y-63238095D01*
X143380952Y-63190476D01*
X143333333Y-63095238D01*
X143333333Y-62904761D01*
X143380952Y-62809523D01*
X143428571Y-62761904D01*
X143523809Y-62714285D01*
G04 #@! TO.C,C7*
X152857142Y-62333333D02*
X152904761Y-62285714D01*
X152952380Y-62142857D01*
X152952380Y-62047619D01*
X152904761Y-61904761D01*
X152809523Y-61809523D01*
X152714285Y-61761904D01*
X152523809Y-61714285D01*
X152380952Y-61714285D01*
X152190476Y-61761904D01*
X152095238Y-61809523D01*
X152000000Y-61904761D01*
X151952380Y-62047619D01*
X151952380Y-62142857D01*
X152000000Y-62285714D01*
X152047619Y-62333333D01*
X151952380Y-62666666D02*
X151952380Y-63333333D01*
X152952380Y-62904761D01*
G04 #@! TO.C,C8*
X161857142Y-62333333D02*
X161904761Y-62285714D01*
X161952380Y-62142857D01*
X161952380Y-62047619D01*
X161904761Y-61904761D01*
X161809523Y-61809523D01*
X161714285Y-61761904D01*
X161523809Y-61714285D01*
X161380952Y-61714285D01*
X161190476Y-61761904D01*
X161095238Y-61809523D01*
X161000000Y-61904761D01*
X160952380Y-62047619D01*
X160952380Y-62142857D01*
X161000000Y-62285714D01*
X161047619Y-62333333D01*
X161380952Y-62904761D02*
X161333333Y-62809523D01*
X161285714Y-62761904D01*
X161190476Y-62714285D01*
X161142857Y-62714285D01*
X161047619Y-62761904D01*
X161000000Y-62809523D01*
X160952380Y-62904761D01*
X160952380Y-63095238D01*
X161000000Y-63190476D01*
X161047619Y-63238095D01*
X161142857Y-63285714D01*
X161190476Y-63285714D01*
X161285714Y-63238095D01*
X161333333Y-63190476D01*
X161380952Y-63095238D01*
X161380952Y-62904761D01*
X161428571Y-62809523D01*
X161476190Y-62761904D01*
X161571428Y-62714285D01*
X161761904Y-62714285D01*
X161857142Y-62761904D01*
X161904761Y-62809523D01*
X161952380Y-62904761D01*
X161952380Y-63095238D01*
X161904761Y-63190476D01*
X161857142Y-63238095D01*
X161761904Y-63285714D01*
X161571428Y-63285714D01*
X161476190Y-63238095D01*
X161428571Y-63190476D01*
X161380952Y-63095238D01*
G04 #@! TO.C,U1*
X93452380Y-54238095D02*
X94261904Y-54238095D01*
X94357142Y-54285714D01*
X94404761Y-54333333D01*
X94452380Y-54428571D01*
X94452380Y-54619047D01*
X94404761Y-54714285D01*
X94357142Y-54761904D01*
X94261904Y-54809523D01*
X93452380Y-54809523D01*
X94452380Y-55809523D02*
X94452380Y-55238095D01*
X94452380Y-55523809D02*
X93452380Y-55523809D01*
X93595238Y-55428571D01*
X93690476Y-55333333D01*
X93738095Y-55238095D01*
G04 #@! TO.C,U3*
X102452380Y-54238095D02*
X103261904Y-54238095D01*
X103357142Y-54285714D01*
X103404761Y-54333333D01*
X103452380Y-54428571D01*
X103452380Y-54619047D01*
X103404761Y-54714285D01*
X103357142Y-54761904D01*
X103261904Y-54809523D01*
X102452380Y-54809523D01*
X102452380Y-55190476D02*
X102452380Y-55809523D01*
X102833333Y-55476190D01*
X102833333Y-55619047D01*
X102880952Y-55714285D01*
X102928571Y-55761904D01*
X103023809Y-55809523D01*
X103261904Y-55809523D01*
X103357142Y-55761904D01*
X103404761Y-55714285D01*
X103452380Y-55619047D01*
X103452380Y-55333333D01*
X103404761Y-55238095D01*
X103357142Y-55190476D01*
G04 #@! TO.C,U5*
X111452380Y-54238095D02*
X112261904Y-54238095D01*
X112357142Y-54285714D01*
X112404761Y-54333333D01*
X112452380Y-54428571D01*
X112452380Y-54619047D01*
X112404761Y-54714285D01*
X112357142Y-54761904D01*
X112261904Y-54809523D01*
X111452380Y-54809523D01*
X111452380Y-55761904D02*
X111452380Y-55285714D01*
X111928571Y-55238095D01*
X111880952Y-55285714D01*
X111833333Y-55380952D01*
X111833333Y-55619047D01*
X111880952Y-55714285D01*
X111928571Y-55761904D01*
X112023809Y-55809523D01*
X112261904Y-55809523D01*
X112357142Y-55761904D01*
X112404761Y-55714285D01*
X112452380Y-55619047D01*
X112452380Y-55380952D01*
X112404761Y-55285714D01*
X112357142Y-55238095D01*
G04 #@! TO.C,U7*
X120452380Y-54238095D02*
X121261904Y-54238095D01*
X121357142Y-54285714D01*
X121404761Y-54333333D01*
X121452380Y-54428571D01*
X121452380Y-54619047D01*
X121404761Y-54714285D01*
X121357142Y-54761904D01*
X121261904Y-54809523D01*
X120452380Y-54809523D01*
X120452380Y-55190476D02*
X120452380Y-55857142D01*
X121452380Y-55428571D01*
G04 #@! TO.C,U9*
X129452380Y-54238095D02*
X130261904Y-54238095D01*
X130357142Y-54285714D01*
X130404761Y-54333333D01*
X130452380Y-54428571D01*
X130452380Y-54619047D01*
X130404761Y-54714285D01*
X130357142Y-54761904D01*
X130261904Y-54809523D01*
X129452380Y-54809523D01*
X130452380Y-55333333D02*
X130452380Y-55523809D01*
X130404761Y-55619047D01*
X130357142Y-55666666D01*
X130214285Y-55761904D01*
X130023809Y-55809523D01*
X129642857Y-55809523D01*
X129547619Y-55761904D01*
X129500000Y-55714285D01*
X129452380Y-55619047D01*
X129452380Y-55428571D01*
X129500000Y-55333333D01*
X129547619Y-55285714D01*
X129642857Y-55238095D01*
X129880952Y-55238095D01*
X129976190Y-55285714D01*
X130023809Y-55333333D01*
X130071428Y-55428571D01*
X130071428Y-55619047D01*
X130023809Y-55714285D01*
X129976190Y-55761904D01*
X129880952Y-55809523D01*
G04 #@! TO.C,U11*
X138452380Y-53761904D02*
X139261904Y-53761904D01*
X139357142Y-53809523D01*
X139404761Y-53857142D01*
X139452380Y-53952380D01*
X139452380Y-54142857D01*
X139404761Y-54238095D01*
X139357142Y-54285714D01*
X139261904Y-54333333D01*
X138452380Y-54333333D01*
X139452380Y-55333333D02*
X139452380Y-54761904D01*
X139452380Y-55047619D02*
X138452380Y-55047619D01*
X138595238Y-54952380D01*
X138690476Y-54857142D01*
X138738095Y-54761904D01*
X139452380Y-56285714D02*
X139452380Y-55714285D01*
X139452380Y-56000000D02*
X138452380Y-56000000D01*
X138595238Y-55904761D01*
X138690476Y-55809523D01*
X138738095Y-55714285D01*
G04 #@! TO.C,U13*
X147452380Y-53761904D02*
X148261904Y-53761904D01*
X148357142Y-53809523D01*
X148404761Y-53857142D01*
X148452380Y-53952380D01*
X148452380Y-54142857D01*
X148404761Y-54238095D01*
X148357142Y-54285714D01*
X148261904Y-54333333D01*
X147452380Y-54333333D01*
X148452380Y-55333333D02*
X148452380Y-54761904D01*
X148452380Y-55047619D02*
X147452380Y-55047619D01*
X147595238Y-54952380D01*
X147690476Y-54857142D01*
X147738095Y-54761904D01*
X147452380Y-55666666D02*
X147452380Y-56285714D01*
X147833333Y-55952380D01*
X147833333Y-56095238D01*
X147880952Y-56190476D01*
X147928571Y-56238095D01*
X148023809Y-56285714D01*
X148261904Y-56285714D01*
X148357142Y-56238095D01*
X148404761Y-56190476D01*
X148452380Y-56095238D01*
X148452380Y-55809523D01*
X148404761Y-55714285D01*
X148357142Y-55666666D01*
G04 #@! TO.C,U15*
X156452380Y-53761904D02*
X157261904Y-53761904D01*
X157357142Y-53809523D01*
X157404761Y-53857142D01*
X157452380Y-53952380D01*
X157452380Y-54142857D01*
X157404761Y-54238095D01*
X157357142Y-54285714D01*
X157261904Y-54333333D01*
X156452380Y-54333333D01*
X157452380Y-55333333D02*
X157452380Y-54761904D01*
X157452380Y-55047619D02*
X156452380Y-55047619D01*
X156595238Y-54952380D01*
X156690476Y-54857142D01*
X156738095Y-54761904D01*
X156452380Y-56238095D02*
X156452380Y-55761904D01*
X156928571Y-55714285D01*
X156880952Y-55761904D01*
X156833333Y-55857142D01*
X156833333Y-56095238D01*
X156880952Y-56190476D01*
X156928571Y-56238095D01*
X157023809Y-56285714D01*
X157261904Y-56285714D01*
X157357142Y-56238095D01*
X157404761Y-56190476D01*
X157452380Y-56095238D01*
X157452380Y-55857142D01*
X157404761Y-55761904D01*
X157357142Y-55714285D01*
G04 #@! TO.C,U17*
X165452380Y-53761904D02*
X166261904Y-53761904D01*
X166357142Y-53809523D01*
X166404761Y-53857142D01*
X166452380Y-53952380D01*
X166452380Y-54142857D01*
X166404761Y-54238095D01*
X166357142Y-54285714D01*
X166261904Y-54333333D01*
X165452380Y-54333333D01*
X166452380Y-55333333D02*
X166452380Y-54761904D01*
X166452380Y-55047619D02*
X165452380Y-55047619D01*
X165595238Y-54952380D01*
X165690476Y-54857142D01*
X165738095Y-54761904D01*
X165452380Y-55666666D02*
X165452380Y-56333333D01*
X166452380Y-55904761D01*
G04 #@! TO.C,U19*
X174452380Y-53761904D02*
X175261904Y-53761904D01*
X175357142Y-53809523D01*
X175404761Y-53857142D01*
X175452380Y-53952380D01*
X175452380Y-54142857D01*
X175404761Y-54238095D01*
X175357142Y-54285714D01*
X175261904Y-54333333D01*
X174452380Y-54333333D01*
X175452380Y-55333333D02*
X175452380Y-54761904D01*
X175452380Y-55047619D02*
X174452380Y-55047619D01*
X174595238Y-54952380D01*
X174690476Y-54857142D01*
X174738095Y-54761904D01*
X175452380Y-55809523D02*
X175452380Y-56000000D01*
X175404761Y-56095238D01*
X175357142Y-56142857D01*
X175214285Y-56238095D01*
X175023809Y-56285714D01*
X174642857Y-56285714D01*
X174547619Y-56238095D01*
X174500000Y-56190476D01*
X174452380Y-56095238D01*
X174452380Y-55904761D01*
X174500000Y-55809523D01*
X174547619Y-55761904D01*
X174642857Y-55714285D01*
X174880952Y-55714285D01*
X174976190Y-55761904D01*
X175023809Y-55809523D01*
X175071428Y-55904761D01*
X175071428Y-56095238D01*
X175023809Y-56190476D01*
X174976190Y-56238095D01*
X174880952Y-56285714D01*
G04 #@! TO.C,C9*
X170857142Y-62333333D02*
X170904761Y-62285714D01*
X170952380Y-62142857D01*
X170952380Y-62047619D01*
X170904761Y-61904761D01*
X170809523Y-61809523D01*
X170714285Y-61761904D01*
X170523809Y-61714285D01*
X170380952Y-61714285D01*
X170190476Y-61761904D01*
X170095238Y-61809523D01*
X170000000Y-61904761D01*
X169952380Y-62047619D01*
X169952380Y-62142857D01*
X170000000Y-62285714D01*
X170047619Y-62333333D01*
X170952380Y-62809523D02*
X170952380Y-63000000D01*
X170904761Y-63095238D01*
X170857142Y-63142857D01*
X170714285Y-63238095D01*
X170523809Y-63285714D01*
X170142857Y-63285714D01*
X170047619Y-63238095D01*
X170000000Y-63190476D01*
X169952380Y-63095238D01*
X169952380Y-62904761D01*
X170000000Y-62809523D01*
X170047619Y-62761904D01*
X170142857Y-62714285D01*
X170380952Y-62714285D01*
X170476190Y-62761904D01*
X170523809Y-62809523D01*
X170571428Y-62904761D01*
X170571428Y-63095238D01*
X170523809Y-63190476D01*
X170476190Y-63238095D01*
X170380952Y-63285714D01*
G04 #@! TD*
M02*
