M48
;DRILL file {KiCad (5.0.0)} date 03/31/20 10:14:23
;FORMAT={-:-/ absolute / metric / decimal}
FMAT,2
METRIC,TZ
T1C0.400
T2C1.000
%
G90
G05
M71
T1
X97.Y-52.5
X97.Y-62.5
X98.5Y-58.
X105.5Y-52.5
X106.Y-62.5
X107.5Y-58.
X115.Y-52.5
X115.Y-62.5
X116.5Y-58.
X124.Y-52.5
X124.Y-62.5
X125.5Y-58.
X133.Y-52.5
X133.Y-62.5
X134.5Y-58.
X142.Y-52.5
X142.Y-62.5
X143.5Y-58.
X151.Y-52.5
X151.Y-62.5
X152.5Y-58.
X160.Y-62.5
X160.5Y-52.5
X161.5Y-58.
X169.Y-52.5
X169.Y-62.5
X170.5Y-58.
X178.Y-52.5
X178.Y-62.5
T2
X183.Y-63.
X183.Y-65.54
X183.Y-68.08
X87.Y-52.46
X87.Y-55.
X87.Y-57.54
X183.Y-52.
X183.Y-54.54
X183.Y-57.08
X87.Y-62.96
X87.Y-65.5
X87.Y-68.04
T0
M30
